v -0.512843 0.175339 0.000000
v 0.012843 0.175339 0.000000
v -0.512843 -0.675339 0.000000
v 0.012843 -0.675339 0.000000
v -0.250000 -0.512843 0.425339
v -0.250000 0.012843 0.425339
v -0.250000 -0.512843 -0.425339
v -0.250000 0.012843 -0.425339
v 0.175339 -0.250000 -0.262843
v 0.175339 -0.250000 0.262843
v -0.675339 -0.250000 -0.262843
v -0.675339 -0.250000 0.262843
v -0.250000 0.250000 0.000000
v -0.404497 0.154507 0.250010
v -0.404497 0.154507 -0.250010
v -0.654507 0.000010 -0.154497
v -0.654507 0.000010 0.154497
v -0.095503 0.154507 0.250010
v -0.095503 0.154507 -0.250010
v 0.154507 0.000010 -0.154497
v 0.154507 0.000010 0.154497
v -0.250000 -0.750000 0.000000
v -0.404497 -0.654507 0.250010
v -0.404497 -0.654507 -0.250010
v -0.654507 -0.500010 -0.154497
v -0.654507 -0.500010 0.154497
v -0.095503 -0.654507 0.250010
v -0.095503 -0.654507 -0.250010
v 0.154507 -0.500010 -0.154497
v 0.154507 -0.500010 0.154497
v -0.250000 -0.250000 0.500000
v 0.000010 -0.404497 0.404507
v -0.500010 -0.404497 0.404507
v 0.000010 -0.095503 0.404507
v -0.500010 -0.095503 0.404507
v -0.250000 -0.250000 -0.500000
v 0.000010 -0.404497 -0.404507
v -0.500010 -0.404497 -0.404507
v 0.000010 -0.095503 -0.404507
v -0.500010 -0.095503 -0.404507
v 0.250000 -0.250000 0.000000
v -0.750000 -0.250000 0.000000
v -0.386621 0.230973 0.000000
v -0.466927 0.181341 0.129951
v -0.466927 0.181341 -0.129951
v -0.596878 0.101036 -0.080305
v -0.596878 0.101036 0.080305
v -0.113379 0.230973 0.000000
v -0.033073 0.181341 0.129951
v -0.033073 0.181341 -0.129951
v 0.096878 0.101036 -0.080305
v 0.096878 0.101036 0.080305
v -0.386621 -0.730973 0.000000
v -0.466927 -0.681341 0.129951
v -0.466927 -0.681341 -0.129951
v -0.596878 -0.601036 -0.080305
v -0.596878 -0.601036 0.080305
v -0.113379 -0.730973 0.000000
v -0.033073 -0.681341 0.129951
v -0.033073 -0.681341 -0.129951
v 0.096878 -0.601036 -0.080305
v 0.096878 -0.601036 0.080305
v -0.330305 -0.596878 0.351036
v -0.169695 -0.596878 0.351036
v -0.250000 -0.386621 0.480973
v -0.120049 -0.466927 0.431341
v -0.379951 -0.466927 0.431341
v -0.330305 0.096878 0.351036
v -0.169695 0.096878 0.351036
v -0.250000 -0.113379 0.480973
v -0.120049 -0.033073 0.431341
v -0.379951 -0.033073 0.431341
v -0.330305 -0.596878 -0.351036
v -0.169695 -0.596878 -0.351036
v -0.250000 -0.386621 -0.480973
v -0.120049 -0.466927 -0.431341
v -0.379951 -0.466927 -0.431341
v -0.330305 0.096878 -0.351036
v -0.169695 0.096878 -0.351036
v -0.250000 -0.113379 -0.480973
v -0.120049 -0.033073 -0.431341
v -0.379951 -0.033073 -0.431341
v 0.181341 -0.120049 -0.216927
v 0.181341 -0.379951 -0.216927
v 0.101036 -0.330305 -0.346878
v 0.101036 -0.169695 -0.346878
v 0.230973 -0.250000 -0.136621
v 0.181341 -0.120049 0.216927
v 0.181341 -0.379951 0.216927
v 0.101036 -0.330305 0.346878
v 0.101036 -0.169695 0.346878
v 0.230973 -0.250000 0.136621
v -0.681341 -0.120049 -0.216927
v -0.681341 -0.379951 -0.216927
v -0.601036 -0.330305 -0.346878
v -0.601036 -0.169695 -0.346878
v -0.730973 -0.250000 -0.136621
v -0.681341 -0.120049 0.216927
v -0.681341 -0.379951 0.216927
v -0.601036 -0.330305 0.346878
v -0.601036 -0.169695 0.346878
v -0.730973 -0.250000 0.136621
v -0.331224 0.225528 0.131438
v -0.331224 0.225528 -0.131438
v -0.168776 0.225528 0.131438
v -0.168776 0.225528 -0.131438
v -0.543886 0.094101 0.212662
v -0.250000 0.175320 0.262874
v -0.462662 0.043886 0.344101
v -0.543886 0.094101 -0.212662
v -0.250000 0.175320 -0.262874
v -0.462662 0.043886 -0.344101
v -0.675320 0.012874 0.000000
v -0.594101 -0.037338 -0.293886
v -0.725528 -0.118562 -0.081224
v -0.594101 -0.037338 0.293886
v -0.725528 -0.118562 0.081224
v 0.043886 0.094101 0.212662
v -0.037338 0.043886 0.344101
v 0.043886 0.094101 -0.212662
v -0.037338 0.043886 -0.344101
v 0.175320 0.012874 0.000000
v 0.094101 -0.037338 -0.293886
v 0.225528 -0.118562 -0.081224
v 0.094101 -0.037338 0.293886
v 0.225528 -0.118562 0.081224
v -0.331224 -0.725528 0.131438
v -0.331224 -0.725528 -0.131438
v -0.168776 -0.725528 0.131438
v -0.168776 -0.725528 -0.131438
v -0.543886 -0.594101 0.212662
v -0.250000 -0.675320 0.262874
v -0.462662 -0.543886 0.344101
v -0.543886 -0.594101 -0.212662
v -0.250000 -0.675320 -0.262874
v -0.462662 -0.543886 -0.344101
v -0.675320 -0.512874 0.000000
v -0.594101 -0.462662 -0.293886
v -0.725528 -0.381438 -0.081224
v -0.594101 -0.462662 0.293886
v -0.725528 -0.381438 0.081224
v 0.043886 -0.594101 0.212662
v -0.037338 -0.543886 0.344101
v 0.043886 -0.594101 -0.212662
v -0.037338 -0.543886 -0.344101
v 0.175320 -0.512874 0.000000
v 0.094101 -0.462662 -0.293886
v 0.225528 -0.381438 -0.081224
v 0.094101 -0.462662 0.293886
v 0.225528 -0.381438 0.081224
v -0.118562 -0.331224 0.475528
v -0.381438 -0.331224 0.475528
v -0.118562 -0.168776 0.475528
v -0.381438 -0.168776 0.475528
v 0.012874 -0.250000 0.425320
v -0.512874 -0.250000 0.425320
v -0.118562 -0.331224 -0.475528
v -0.381438 -0.331224 -0.475528
v -0.118562 -0.168776 -0.475528
v -0.381438 -0.168776 -0.475528
v 0.012874 -0.250000 -0.425320
v -0.512874 -0.250000 -0.425320
v -0.451660 0.207530 0.000000
v -0.492201 0.182475 0.065603
v -0.492201 0.182475 -0.065603
v -0.557804 0.141935 -0.040540
v -0.557804 0.141935 0.040540
v -0.048340 0.207530 0.000000
v -0.007799 0.182475 0.065603
v -0.007799 0.182475 -0.065603
v 0.057804 0.141935 -0.040540
v 0.057804 0.141935 0.040540
v -0.451660 -0.707530 0.000000
v -0.492201 -0.682475 0.065603
v -0.492201 -0.682475 -0.065603
v -0.557804 -0.641935 -0.040540
v -0.557804 -0.641935 0.040540
v -0.048340 -0.707530 0.000000
v -0.007799 -0.682475 0.065603
v -0.007799 -0.682475 -0.065603
v 0.057804 -0.641935 -0.040540
v 0.057804 -0.641935 0.040540
v -0.290540 -0.557804 0.391935
v -0.209460 -0.557804 0.391935
v -0.250000 -0.451660 0.457530
v -0.184397 -0.492201 0.432475
v -0.315603 -0.492201 0.432475
v -0.290540 0.057804 0.391935
v -0.209460 0.057804 0.391935
v -0.250000 -0.048340 0.457530
v -0.184397 -0.007799 0.432475
v -0.315603 -0.007799 0.432475
v -0.290540 -0.557804 -0.391935
v -0.209460 -0.557804 -0.391935
v -0.250000 -0.451660 -0.457530
v -0.184397 -0.492201 -0.432475
v -0.315603 -0.492201 -0.432475
v -0.290540 0.057804 -0.391935
v -0.209460 0.057804 -0.391935
v -0.250000 -0.048340 -0.457530
v -0.184397 -0.007799 -0.432475
v -0.315603 -0.007799 -0.432475
v 0.182475 -0.184397 -0.242201
v 0.182475 -0.315603 -0.242201
v 0.141935 -0.290540 -0.307804
v 0.141935 -0.209460 -0.307804
v 0.207530 -0.250000 -0.201660
v 0.182475 -0.184397 0.242201
v 0.182475 -0.315603 0.242201
v 0.141935 -0.290540 0.307804
v 0.141935 -0.209460 0.307804
v 0.207530 -0.250000 0.201660
v -0.682475 -0.184397 -0.242201
v -0.682475 -0.315603 -0.242201
v -0.641935 -0.290540 -0.307804
v -0.641935 -0.209460 -0.307804
v -0.707530 -0.250000 -0.201660
v -0.682475 -0.184397 0.242201
v -0.682475 -0.315603 0.242201
v -0.641935 -0.290540 0.307804
v -0.641935 -0.209460 0.307804
v -0.707530 -0.250000 0.201660
v -0.318970 0.245220 0.000000
v -0.181030 0.245220 0.000000
v -0.291118 0.243844 0.066538
v -0.291118 0.243844 -0.066538
v -0.208882 0.243844 0.066538
v -0.208882 0.243844 -0.066538
v -0.437505 0.171959 0.191815
v -0.368534 0.129319 0.303424
v -0.369329 0.195502 0.193102
v -0.476986 0.128970 0.234220
v -0.328211 0.170085 0.259638
v -0.435868 0.103550 0.300759
v -0.437505 0.171959 -0.191815
v -0.368534 0.129319 -0.303424
v -0.369329 0.195502 -0.193102
v -0.476986 0.128970 -0.234220
v -0.328211 0.170085 -0.259638
v -0.435868 0.103550 -0.300759
v -0.629319 0.053424 -0.118534
v -0.671959 -0.058185 -0.187505
v -0.603550 0.050759 -0.185868
v -0.670085 0.009638 -0.078211
v -0.628970 -0.015780 -0.226986
v -0.695502 -0.056898 -0.119329
v -0.629319 0.053424 0.118534
v -0.671959 -0.058185 0.187505
v -0.603550 0.050759 0.185868
v -0.670085 0.009638 0.078211
v -0.628970 -0.015780 0.226986
v -0.695502 -0.056898 0.119329
v -0.062495 0.171959 0.191815
v -0.131466 0.129319 0.303424
v -0.130671 0.195502 0.193102
v -0.171789 0.170085 0.259638
v -0.023014 0.128970 0.234220
v -0.064132 0.103550 0.300759
v -0.062495 0.171959 -0.191815
v -0.131466 0.129319 -0.303424
v -0.130671 0.195502 -0.193102
v -0.171789 0.170085 -0.259638
v -0.023014 0.128970 -0.234220
v -0.064132 0.103550 -0.300759
v 0.129319 0.053424 -0.118534
v 0.171959 -0.058185 -0.187505
v 0.103550 0.050759 -0.185868
v 0.170085 0.009638 -0.078211
v 0.128970 -0.015780 -0.226986
v 0.195502 -0.056898 -0.119329
v 0.129319 0.053424 0.118534
v 0.171959 -0.058185 0.187505
v 0.103550 0.050759 0.185868
v 0.170085 0.009638 0.078211
v 0.128970 -0.015780 0.226986
v 0.195502 -0.056898 0.119329
v -0.318970 -0.745220 0.000000
v -0.181030 -0.745220 0.000000
v -0.291118 -0.743844 0.066538
v -0.291118 -0.743844 -0.066538
v -0.208882 -0.743844 0.066538
v -0.208882 -0.743844 -0.066538
v -0.437505 -0.671959 0.191815
v -0.368534 -0.629319 0.303424
v -0.369329 -0.695502 0.193102
v -0.476986 -0.628970 0.234220
v -0.328211 -0.670085 0.259638
v -0.435868 -0.603550 0.300759
v -0.437505 -0.671959 -0.191815
v -0.368534 -0.629319 -0.303424
v -0.369329 -0.695502 -0.193102
v -0.476986 -0.628970 -0.234220
v -0.328211 -0.670085 -0.259638
v -0.435868 -0.603550 -0.300759
v -0.629319 -0.553424 -0.118534
v -0.671959 -0.441815 -0.187505
v -0.603550 -0.550759 -0.185868
v -0.670085 -0.509638 -0.078211
v -0.628970 -0.484220 -0.226986
v -0.695502 -0.443102 -0.119329
v -0.629319 -0.553424 0.118534
v -0.671959 -0.441815 0.187505
v -0.603550 -0.550759 0.185868
v -0.670085 -0.509638 0.078211
v -0.628970 -0.484220 0.226986
v -0.695502 -0.443102 0.119329
v -0.062495 -0.671959 0.191815
v -0.131466 -0.629319 0.303424
v -0.130671 -0.695502 0.193102
v -0.171789 -0.670085 0.259638
v -0.023014 -0.628970 0.234220
v -0.064132 -0.603550 0.300759
v -0.062495 -0.671959 -0.191815
v -0.131466 -0.629319 -0.303424
v -0.130671 -0.695502 -0.193102
v -0.171789 -0.670085 -0.259638
v -0.023014 -0.628970 -0.234220
v -0.064132 -0.603550 -0.300759
v 0.129319 -0.553424 -0.118534
v 0.171959 -0.441815 -0.187505
v 0.103550 -0.550759 -0.185868
v 0.170085 -0.509638 -0.078211
v 0.128970 -0.484220 -0.226986
v 0.195502 -0.443102 -0.119329
v 0.129319 -0.553424 0.118534
v 0.171959 -0.441815 0.187505
v 0.103550 -0.550759 0.185868
v 0.170085 -0.509638 0.078211
v 0.128970 -0.484220 0.226986
v 0.195502 -0.443102 0.119329
v -0.250000 -0.318970 0.495220
v -0.250000 -0.181030 0.495220
v -0.183462 -0.291118 0.493844
v -0.316538 -0.291118 0.493844
v -0.183462 -0.208882 0.493844
v -0.316538 -0.208882 0.493844
v -0.058185 -0.437505 0.421959
v 0.053424 -0.368534 0.379319
v -0.015780 -0.476986 0.378970
v 0.050759 -0.435868 0.353550
v -0.056898 -0.369329 0.445502
v 0.009638 -0.328211 0.420085
v -0.441815 -0.437505 0.421959
v -0.553424 -0.368534 0.379319
v -0.484220 -0.476986 0.378970
v -0.550759 -0.435868 0.353550
v -0.443102 -0.369329 0.445502
v -0.509638 -0.328211 0.420085
v -0.058185 -0.062495 0.421959
v 0.053424 -0.131466 0.379319
v -0.015780 -0.023014 0.378970
v 0.050759 -0.064132 0.353550
v -0.056898 -0.130671 0.445502
v 0.009638 -0.171789 0.420085
v -0.441815 -0.062495 0.421959
v -0.553424 -0.131466 0.379319
v -0.484220 -0.023014 0.378970
v -0.550759 -0.064132 0.353550
v -0.443102 -0.130671 0.445502
v -0.509638 -0.171789 0.420085
v -0.250000 -0.318970 -0.495220
v -0.250000 -0.181030 -0.495220
v -0.183462 -0.291118 -0.493844
v -0.316538 -0.291118 -0.493844
v -0.183462 -0.208882 -0.493844
v -0.316538 -0.208882 -0.493844
v -0.058185 -0.437505 -0.421959
v 0.053424 -0.368534 -0.379319
v -0.015780 -0.476986 -0.378970
v 0.050759 -0.435868 -0.353550
v -0.056898 -0.369329 -0.445502
v 0.009638 -0.328211 -0.420085
v -0.441815 -0.437505 -0.421959
v -0.553424 -0.368534 -0.379319
v -0.484220 -0.476986 -0.378970
v -0.550759 -0.435868 -0.353550
v -0.443102 -0.369329 -0.445502
v -0.509638 -0.328211 -0.420085
v -0.058185 -0.062495 -0.421959
v 0.053424 -0.131466 -0.379319
v -0.015780 -0.023014 -0.378970
v 0.050759 -0.064132 -0.353550
v -0.056898 -0.130671 -0.445502
v 0.009638 -0.171789 -0.420085
v -0.441815 -0.062495 -0.421959
v -0.553424 -0.131466 -0.379319
v -0.484220 -0.023014 -0.378970
v -0.550759 -0.064132 -0.353550
v -0.443102 -0.130671 -0.445502
v -0.509638 -0.171789 -0.420085
v 0.245220 -0.250000 -0.068970
v 0.245220 -0.250000 0.068970
v 0.243844 -0.183462 -0.041118
v 0.243844 -0.183462 0.041118
v 0.243844 -0.316538 -0.041118
v 0.243844 -0.316538 0.041118
v -0.745220 -0.250000 -0.068970
v -0.745220 -0.250000 0.068970
v -0.743844 -0.183462 -0.041118
v -0.743844 -0.183462 0.041118
v -0.743844 -0.316538 -0.041118
v -0.743844 -0.316538 0.041118
v -0.429099 0.212158 0.065830
v -0.429099 0.212158 -0.065830
v -0.360049 0.233198 0.066399
v -0.360049 0.233198 -0.066399
v -0.535611 0.146335 0.106511
v -0.400617 0.208125 0.132047
v -0.508049 0.141732 0.173079
v -0.535611 0.146335 -0.106511
v -0.400617 0.208125 -0.132047
v -0.508049 0.141732 -0.173079
v -0.601441 0.105653 0.000000
v -0.573697 0.101164 -0.147999
v -0.640094 0.060131 -0.040568
v -0.573697 0.101164 0.147999
v -0.640094 0.060131 0.040568
v -0.070901 0.212158 0.065830
v -0.070901 0.212158 -0.065830
v -0.139951 0.233198 0.066399
v -0.139951 0.233198 -0.066399
v 0.035611 0.146335 0.106511
v -0.099383 0.208125 0.132047
v 0.008049 0.141732 0.173079
v 0.035611 0.146335 -0.106511
v -0.099383 0.208125 -0.132047
v 0.008049 0.141732 -0.173079
v 0.101441 0.105653 0.000000
v 0.073697 0.101164 -0.147999
v 0.140094 0.060131 -0.040568
v 0.073697 0.101164 0.147999
v 0.140094 0.060131 0.040568
v -0.429099 -0.712158 0.065830
v -0.429099 -0.712158 -0.065830
v -0.360049 -0.733198 0.066399
v -0.360049 -0.733198 -0.066399
v -0.535611 -0.646335 0.106511
v -0.400617 -0.708125 0.132047
v -0.508049 -0.641732 0.173079
v -0.535611 -0.646335 -0.106511
v -0.400617 -0.708125 -0.132047
v -0.508049 -0.641732 -0.173079
v -0.601441 -0.605653 0.000000
v -0.573697 -0.601164 -0.147999
v -0.640094 -0.560131 -0.040568
v -0.573697 -0.601164 0.147999
v -0.640094 -0.560131 0.040568
v -0.070901 -0.712158 0.065830
v -0.070901 -0.712158 -0.065830
v -0.139951 -0.733198 0.066399
v -0.139951 -0.733198 -0.066399
v 0.035611 -0.646335 0.106511
v -0.099383 -0.708125 0.132047
v 0.008049 -0.641732 0.173079
v 0.035611 -0.646335 -0.106511
v -0.099383 -0.708125 -0.132047
v 0.008049 -0.641732 -0.173079
v 0.101441 -0.605653 0.000000
v 0.073697 -0.601164 -0.147999
v 0.140094 -0.560131 -0.040568
v 0.073697 -0.601164 0.147999
v 0.140094 -0.560131 0.040568
v -0.250000 -0.601441 0.355653
v -0.356511 -0.535611 0.396335
v -0.290568 -0.640094 0.310131
v -0.397999 -0.573697 0.351164
v -0.143489 -0.535611 0.396335
v -0.209432 -0.640094 0.310131
v -0.102001 -0.573697 0.351164
v -0.184170 -0.429099 0.462158
v -0.315830 -0.429099 0.462158
v -0.183601 -0.360049 0.483198
v -0.316399 -0.360049 0.483198
v -0.076921 -0.508049 0.391732
v -0.117953 -0.400617 0.458125
v -0.423079 -0.508049 0.391732
v -0.382047 -0.400617 0.458125
v -0.250000 0.101441 0.355653
v -0.356511 0.035611 0.396335
v -0.290568 0.140094 0.310131
v -0.397999 0.073697 0.351164
v -0.143489 0.035611 0.396335
v -0.209432 0.140094 0.310131
v -0.102001 0.073697 0.351164
v -0.184170 -0.070901 0.462158
v -0.315830 -0.070901 0.462158
v -0.183601 -0.139951 0.483198
v -0.316399 -0.139951 0.483198
v -0.076921 0.008049 0.391732
v -0.117953 -0.099383 0.458125
v -0.423079 0.008049 0.391732
v -0.382047 -0.099383 0.458125
v -0.250000 -0.601441 -0.355653
v -0.356511 -0.535611 -0.396335
v -0.290568 -0.640094 -0.310131
v -0.397999 -0.573697 -0.351164
v -0.143489 -0.535611 -0.396335
v -0.209432 -0.640094 -0.310131
v -0.102001 -0.573697 -0.351164
v -0.184170 -0.429099 -0.462158
v -0.315830 -0.429099 -0.462158
v -0.183601 -0.360049 -0.483198
v -0.316399 -0.360049 -0.483198
v -0.076921 -0.508049 -0.391732
v -0.117953 -0.400617 -0.458125
v -0.423079 -0.508049 -0.391732
v -0.382047 -0.400617 -0.458125
v -0.250000 0.101441 -0.355653
v -0.356511 0.035611 -0.396335
v -0.290568 0.140094 -0.310131
v -0.397999 0.073697 -0.351164
v -0.143489 0.035611 -0.396335
v -0.209432 0.140094 -0.310131
v -0.102001 0.073697 -0.351164
v -0.184170 -0.070901 -0.462158
v -0.315830 -0.070901 -0.462158
v -0.183601 -0.139951 -0.483198
v -0.316399 -0.139951 -0.483198
v -0.076921 0.008049 -0.391732
v -0.117953 -0.099383 -0.458125
v -0.423079 0.008049 -0.391732
v -0.382047 -0.099383 -0.458125
v 0.146335 -0.143489 -0.285611
v 0.212158 -0.184170 -0.179099
v 0.141732 -0.076921 -0.258049
v 0.208125 -0.117953 -0.150617
v 0.146335 -0.356511 -0.285611
v 0.212158 -0.315830 -0.179099
v 0.141732 -0.423079 -0.258049
v 0.208125 -0.382047 -0.150617
v 0.105653 -0.250000 -0.351441
v 0.101164 -0.397999 -0.323697
v 0.060131 -0.290568 -0.390094
v 0.101164 -0.102001 -0.323697
v 0.060131 -0.209432 -0.390094
v 0.233198 -0.183601 -0.110049
v 0.233198 -0.316399 -0.110049
v 0.146335 -0.143489 0.285611
v 0.212158 -0.184170 0.179099
v 0.141732 -0.076921 0.258049
v 0.208125 -0.117953 0.150617
v 0.146335 -0.356511 0.285611
v 0.212158 -0.315830 0.179099
v 0.141732 -0.423079 0.258049
v 0.208125 -0.382047 0.150617
v 0.105653 -0.250000 0.351441
v 0.101164 -0.397999 0.323697
v 0.060131 -0.290568 0.390094
v 0.101164 -0.102001 0.323697
v 0.060131 -0.209432 0.390094
v 0.233198 -0.183601 0.110049
v 0.233198 -0.316399 0.110049
v -0.646335 -0.143489 -0.285611
v -0.712158 -0.184170 -0.179099
v -0.641732 -0.076921 -0.258049
v -0.708125 -0.117953 -0.150617
v -0.646335 -0.356511 -0.285611
v -0.712158 -0.315830 -0.179099
v -0.641732 -0.423079 -0.258049
v -0.708125 -0.382047 -0.150617
v -0.605653 -0.250000 -0.351441
v -0.601164 -0.397999 -0.323697
v -0.560131 -0.290568 -0.390094
v -0.601164 -0.102001 -0.323697
v -0.560131 -0.209432 -0.390094
v -0.733198 -0.183601 -0.110049
v -0.733198 -0.316399 -0.110049
v -0.646335 -0.143489 0.285611
v -0.712158 -0.184170 0.179099
v -0.641732 -0.076921 0.258049
v -0.708125 -0.117953 0.150617
v -0.646335 -0.356511 0.285611
v -0.712158 -0.315830 0.179099
v -0.641732 -0.423079 0.258049
v -0.708125 -0.382047 0.150617
v -0.605653 -0.250000 0.351441
v -0.601164 -0.397999 0.323697
v -0.560131 -0.290568 0.390094
v -0.601164 -0.102001 0.323697
v -0.560131 -0.209432 0.390094
v -0.733198 -0.183601 0.110049
v -0.733198 -0.316399 0.110049
v -0.250000 0.231929 0.133208
v -0.291159 0.206488 0.199811
v -0.250000 0.231929 -0.133208
v -0.291159 0.206488 -0.199811
v -0.208841 0.206488 0.199811
v -0.208841 0.206488 -0.199811
v -0.506685 0.073289 0.282130
v -0.573289 0.032130 0.256685
v -0.532130 0.006685 0.323289
v -0.506685 0.073289 -0.282130
v -0.573289 0.032130 -0.256685
v -0.532130 0.006685 -0.323289
v -0.706488 -0.050189 -0.041159
v -0.706488 -0.050189 0.041159
v -0.731929 -0.116792 0.000000
v 0.006685 0.073289 0.282130
v 0.073289 0.032130 0.256685
v 0.032130 0.006685 0.323289
v 0.006685 0.073289 -0.282130
v 0.073289 0.032130 -0.256685
v 0.032130 0.006685 -0.323289
v 0.206488 -0.050189 -0.041159
v 0.206488 -0.050189 0.041159
v 0.231929 -0.116792 0.000000
v -0.250000 -0.731929 0.133208
v -0.291159 -0.706488 0.199811
v -0.250000 -0.731929 -0.133208
v -0.291159 -0.706488 -0.199811
v -0.208841 -0.706488 0.199811
v -0.208841 -0.706488 -0.199811
v -0.506685 -0.573289 0.282130
v -0.573289 -0.532130 0.256685
v -0.532130 -0.506685 0.323289
v -0.506685 -0.573289 -0.282130
v -0.573289 -0.532130 -0.256685
v -0.532130 -0.506685 -0.323289
v -0.706488 -0.449811 -0.041159
v -0.706488 -0.449811 0.041159
v -0.731929 -0.383208 0.000000
v 0.006685 -0.573289 0.282130
v 0.073289 -0.532130 0.256685
v 0.032130 -0.506685 0.323289
v 0.006685 -0.573289 -0.282130
v 0.073289 -0.532130 -0.256685
v 0.032130 -0.506685 -0.323289
v 0.206488 -0.449811 -0.041159
v 0.206488 -0.449811 0.041159
v 0.231929 -0.383208 0.000000
v -0.116792 -0.250000 0.481929
v -0.050189 -0.291159 0.456488
v -0.383208 -0.250000 0.481929
v -0.449811 -0.291159 0.456488
v -0.050189 -0.208841 0.456488
v -0.449811 -0.208841 0.456488
v -0.116792 -0.250000 -0.481929
v -0.050189 -0.291159 -0.456488
v -0.383208 -0.250000 -0.481929
v -0.449811 -0.291159 -0.456488
v -0.050189 -0.208841 -0.456488
v -0.449811 -0.208841 -0.456488
v -0.017981 0.034027 0.000000
v 0.717981 0.034027 0.000000
v -0.017981 -0.034027 0.000000
v 0.717981 -0.034027 0.000000
v 0.350000 -0.021027 0.127602
v 0.350000 0.021027 0.127602
v 0.350000 -0.021027 -0.127602
v 0.350000 0.021027 -0.127602
v 0.945475 0.000000 -0.078853
v 0.945475 0.000000 0.078853
v -0.245475 0.000000 -0.078853
v -0.245475 0.000000 0.078853
v 0.350000 0.040000 0.000000
v 0.133705 0.032361 0.075003
v 0.133705 0.032361 -0.075003
v -0.216309 0.020001 -0.046349
v -0.216309 0.020001 0.046349
v 0.566295 0.032361 0.075003
v 0.566295 0.032361 -0.075003
v 0.916309 0.020001 -0.046349
v 0.916309 0.020001 0.046349
v 0.350000 -0.040000 0.000000
v 0.133705 -0.032361 0.075003
v 0.133705 -0.032361 -0.075003
v -0.216309 -0.020001 -0.046349
v -0.216309 -0.020001 0.046349
v 0.566295 -0.032361 0.075003
v 0.566295 -0.032361 -0.075003
v 0.916309 -0.020001 -0.046349
v 0.916309 -0.020001 0.046349
v 0.350000 0.000000 0.150000
v 0.700014 -0.012360 0.121352
v -0.000014 -0.012360 0.121352
v 0.700014 0.012360 0.121352
v -0.000014 0.012360 0.121352
v 0.350000 0.000000 -0.150000
v 0.700014 -0.012360 -0.121352
v -0.000014 -0.012360 -0.121352
v 0.700014 0.012360 -0.121352
v -0.000014 0.012360 -0.121352
v 1.050000 0.000000 0.000000
v -0.350000 0.000000 0.000000
v 0.158731 0.038478 0.000000
v 0.046302 0.034507 0.038985
v 0.046302 0.034507 -0.038985
v -0.135630 0.028083 -0.024092
v -0.135630 0.028083 0.024092
v 0.541269 0.038478 0.000000
v 0.653698 0.034507 0.038985
v 0.653698 0.034507 -0.038985
v 0.835630 0.028083 -0.024092
v 0.835630 0.028083 0.024092
v 0.158731 -0.038478 0.000000
v 0.046302 -0.034507 0.038985
v 0.046302 -0.034507 -0.038985
v -0.135630 -0.028083 -0.024092
v -0.135630 -0.028083 0.024092
v 0.541269 -0.038478 0.000000
v 0.653698 -0.034507 0.038985
v 0.653698 -0.034507 -0.038985
v 0.835630 -0.028083 -0.024092
v 0.835630 -0.028083 0.024092
v 0.237573 -0.027750 0.105311
v 0.462427 -0.027750 0.105311
v 0.350000 -0.010930 0.144292
v 0.531932 -0.017354 0.129402
v 0.168068 -0.017354 0.129402
v 0.237573 0.027750 0.105311
v 0.462427 0.027750 0.105311
v 0.350000 0.010930 0.144292
v 0.531932 0.017354 0.129402
v 0.168068 0.017354 0.129402
v 0.237573 -0.027750 -0.105311
v 0.462427 -0.027750 -0.105311
v 0.350000 -0.010930 -0.144292
v 0.531932 -0.017354 -0.129402
v 0.168068 -0.017354 -0.129402
v 0.237573 0.027750 -0.105311
v 0.462427 0.027750 -0.105311
v 0.350000 0.010930 -0.144292
v 0.531932 0.017354 -0.129402
v 0.168068 0.017354 -0.129402
v 0.953878 0.010396 -0.065078
v 0.953878 -0.010396 -0.065078
v 0.841451 -0.006424 -0.104064
v 0.841451 0.006424 -0.104064
v 1.023362 0.000000 -0.040986
v 0.953878 0.010396 0.065078
v 0.953878 -0.010396 0.065078
v 0.841451 -0.006424 0.104064
v 0.841451 0.006424 0.104064
v 1.023362 0.000000 0.040986
v -0.253878 0.010396 -0.065078
v -0.253878 -0.010396 -0.065078
v -0.141451 -0.006424 -0.104064
v -0.141451 0.006424 -0.104064
v -0.323362 0.000000 -0.040986
v -0.253878 0.010396 0.065078
v -0.253878 -0.010396 0.065078
v -0.141451 -0.006424 0.104064
v -0.141451 0.006424 0.104064
v -0.323362 0.000000 0.040986
v 0.236287 0.038042 0.039431
v 0.236287 0.038042 -0.039431
v 0.463713 0.038042 0.039431
v 0.463713 0.038042 -0.039431
v -0.061441 0.027528 0.063799
v 0.350000 0.034026 0.078862
v 0.052273 0.023511 0.103230
v -0.061441 0.027528 -0.063799
v 0.350000 0.034026 -0.078862
v 0.052273 0.023511 -0.103230
v -0.245448 0.021030 0.000000
v -0.131741 0.017013 -0.088166
v -0.315739 0.010515 -0.024367
v -0.131741 0.017013 0.088166
v -0.315739 0.010515 0.024367
v 0.761441 0.027528 0.063799
v 0.647727 0.023511 0.103230
v 0.761441 0.027528 -0.063799
v 0.647727 0.023511 -0.103230
v 0.945448 0.021030 0.000000
v 0.831741 0.017013 -0.088166
v 1.015739 0.010515 -0.024367
v 0.831741 0.017013 0.088166
v 1.015739 0.010515 0.024367
v 0.236287 -0.038042 0.039431
v 0.236287 -0.038042 -0.039431
v 0.463713 -0.038042 0.039431
v 0.463713 -0.038042 -0.039431
v -0.061441 -0.027528 0.063799
v 0.350000 -0.034026 0.078862
v 0.052273 -0.023511 0.103230
v -0.061441 -0.027528 -0.063799
v 0.350000 -0.034026 -0.078862
v 0.052273 -0.023511 -0.103230
v -0.245448 -0.021030 0.000000
v -0.131741 -0.017013 -0.088166
v -0.315739 -0.010515 -0.024367
v -0.131741 -0.017013 0.088166
v -0.315739 -0.010515 0.024367
v 0.761441 -0.027528 0.063799
v 0.647727 -0.023511 0.103230
v 0.761441 -0.027528 -0.063799
v 0.647727 -0.023511 -0.103230
v 0.945448 -0.021030 0.000000
v 0.831741 -0.017013 -0.088166
v 1.015739 -0.010515 -0.024367
v 0.831741 -0.017013 0.088166
v 1.015739 -0.010515 0.024367
v 0.534014 -0.006498 0.142658
v 0.165986 -0.006498 0.142658
v 0.534014 0.006498 0.142658
v 0.165986 0.006498 0.142658
v 0.718024 0.000000 0.127596
v -0.018024 0.000000 0.127596
v 0.534014 -0.006498 -0.142658
v 0.165986 -0.006498 -0.142658
v 0.534014 0.006498 -0.142658
v 0.165986 0.006498 -0.142658
v 0.718024 0.000000 -0.127596
v -0.018024 0.000000 -0.127596
v 0.067676 0.036602 0.000000
v 0.010919 0.034598 0.019681
v 0.010919 0.034598 -0.019681
v -0.080925 0.031355 -0.012162
v -0.080925 0.031355 0.012162
v 0.632324 0.036602 0.000000
v 0.689081 0.034598 0.019681
v 0.689081 0.034598 -0.019681
v 0.780926 0.031355 -0.012162
v 0.780926 0.031355 0.012162
v 0.067676 -0.036602 0.000000
v 0.010919 -0.034598 0.019681
v 0.010919 -0.034598 -0.019681
v -0.080925 -0.031355 -0.012162
v -0.080925 -0.031355 0.012162
v 0.632324 -0.036602 0.000000
v 0.689081 -0.034598 0.019681
v 0.689081 -0.034598 -0.019681
v 0.780926 -0.031355 -0.012162
v 0.780926 -0.031355 0.012162
v 0.293244 -0.024624 0.117581
v 0.406756 -0.024624 0.117581
v 0.350000 -0.016133 0.137259
v 0.441844 -0.019376 0.129743
v 0.258156 -0.019376 0.129743
v 0.293244 0.024624 0.117581
v 0.406756 0.024624 0.117581
v 0.350000 0.016133 0.137259
v 0.441844 0.019376 0.129743
v 0.258156 0.019376 0.129743
v 0.293244 -0.024624 -0.117581
v 0.406756 -0.024624 -0.117581
v 0.350000 -0.016133 -0.137259
v 0.441844 -0.019376 -0.129743
v 0.258156 -0.019376 -0.129743
v 0.293244 0.024624 -0.117581
v 0.406756 0.024624 -0.117581
v 0.350000 0.016133 -0.137259
v 0.441844 0.019376 -0.129743
v 0.258156 0.019376 -0.129743
v 0.955466 0.005248 -0.072660
v 0.955466 -0.005248 -0.072660
v 0.898709 -0.003243 -0.092341
v 0.898709 0.003243 -0.092341
v 0.990541 0.000000 -0.060498
v 0.955466 0.005248 0.072660
v 0.955466 -0.005248 0.072660
v 0.898709 -0.003243 0.092341
v 0.898709 0.003243 0.092341
v 0.990541 0.000000 0.060498
v -0.255466 0.005248 -0.072660
v -0.255466 -0.005248 -0.072660
v -0.198709 -0.003243 -0.092341
v -0.198709 0.003243 -0.092341
v -0.290541 0.000000 -0.060498
v -0.255466 0.005248 0.072660
v -0.255466 -0.005248 0.072660
v -0.198709 -0.003243 0.092341
v -0.198709 0.003243 0.092341
v -0.290541 0.000000 0.060498
v 0.253442 0.039618 0.000000
v 0.446557 0.039618 0.000000
v 0.292435 0.039508 0.019961
v 0.292435 0.039508 -0.019961
v 0.407565 0.039508 0.019961
v 0.407565 0.039508 -0.019961
v 0.087494 0.033757 0.057544
v 0.184052 0.030346 0.091027
v 0.182939 0.035640 0.057930
v 0.032219 0.030318 0.070266
v 0.240504 0.033607 0.077891
v 0.089785 0.028284 0.090228
v 0.087494 0.033757 -0.057544
v 0.184052 0.030346 -0.091027
v 0.182939 0.035640 -0.057930
v 0.032219 0.030318 -0.070266
v 0.240504 0.033607 -0.077891
v 0.089785 0.028284 -0.090228
v -0.181047 0.024274 -0.035560
v -0.240742 0.015345 -0.056251
v -0.144969 0.024061 -0.055760
v -0.238118 0.020771 -0.023463
v -0.180558 0.018738 -0.068096
v -0.273703 0.015448 -0.035799
v -0.181047 0.024274 0.035560
v -0.240742 0.015345 0.056251
v -0.144969 0.024061 0.055760
v -0.238118 0.020771 0.023463
v -0.180558 0.018738 0.068096
v -0.273703 0.015448 0.035799
v 0.612507 0.033757 0.057544
v 0.515948 0.030346 0.091027
v 0.517061 0.035640 0.057930
v 0.459496 0.033607 0.077891
v 0.667781 0.030318 0.070266
v 0.610215 0.028284 0.090228
v 0.612507 0.033757 -0.057544
v 0.515948 0.030346 -0.091027
v 0.517061 0.035640 -0.057930
v 0.459496 0.033607 -0.077891
v 0.667781 0.030318 -0.070266
v 0.610215 0.028284 -0.090228
v 0.881047 0.024274 -0.035560
v 0.940742 0.015345 -0.056251
v 0.844970 0.024061 -0.055760
v 0.938118 0.020771 -0.023463
v 0.880558 0.018738 -0.068096
v 0.973703 0.015448 -0.035799
v 0.881047 0.024274 0.035560
v 0.940742 0.015345 0.056251
v 0.844970 0.024061 0.055760
v 0.938118 0.020771 0.023463
v 0.880558 0.018738 0.068096
v 0.973703 0.015448 0.035799
v 0.253442 -0.039618 0.000000
v 0.446557 -0.039618 0.000000
v 0.292435 -0.039508 0.019961
v 0.292435 -0.039508 -0.019961
v 0.407565 -0.039508 0.019961
v 0.407565 -0.039508 -0.019961
v 0.087494 -0.033757 0.057544
v 0.184052 -0.030346 0.091027
v 0.182939 -0.035640 0.057930
v 0.032219 -0.030318 0.070266
v 0.240504 -0.033607 0.077891
v 0.089785 -0.028284 0.090228
v 0.087494 -0.033757 -0.057544
v 0.184052 -0.030346 -0.091027
v 0.182939 -0.035640 -0.057930
v 0.032219 -0.030318 -0.070266
v 0.240504 -0.033607 -0.077891
v 0.089785 -0.028284 -0.090228
v -0.181047 -0.024274 -0.035560
v -0.240742 -0.015345 -0.056251
v -0.144969 -0.024061 -0.055760
v -0.238118 -0.020771 -0.023463
v -0.180558 -0.018738 -0.068096
v -0.273703 -0.015448 -0.035799
v -0.181047 -0.024274 0.035560
v -0.240742 -0.015345 0.056251
v -0.144969 -0.024061 0.055760
v -0.238118 -0.020771 0.023463
v -0.180558 -0.018738 0.068096
v -0.273703 -0.015448 0.035799
v 0.612507 -0.033757 0.057544
v 0.515948 -0.030346 0.091027
v 0.517061 -0.035640 0.057930
v 0.459496 -0.033607 0.077891
v 0.667781 -0.030318 0.070266
v 0.610215 -0.028284 0.090228
v 0.612507 -0.033757 -0.057544
v 0.515948 -0.030346 -0.091027
v 0.517061 -0.035640 -0.057930
v 0.459496 -0.033607 -0.077891
v 0.667781 -0.030318 -0.070266
v 0.610215 -0.028284 -0.090228
v 0.881047 -0.024274 -0.035560
v 0.940742 -0.015345 -0.056251
v 0.844970 -0.024061 -0.055760
v 0.938118 -0.020771 -0.023463
v 0.880558 -0.018738 -0.068096
v 0.973703 -0.015448 -0.035799
v 0.881047 -0.024274 0.035560
v 0.940742 -0.015345 0.056251
v 0.844970 -0.024061 0.055760
v 0.938118 -0.020771 0.023463
v 0.880558 -0.018738 0.068096
v 0.973703 -0.015448 0.035799
v 0.350000 -0.005518 0.148566
v 0.350000 0.005518 0.148566
v 0.443154 -0.003289 0.148153
v 0.256846 -0.003289 0.148153
v 0.443154 0.003289 0.148153
v 0.256846 0.003289 0.148153
v 0.618541 -0.015000 0.126588
v 0.774794 -0.009483 0.113796
v 0.677908 -0.018159 0.113691
v 0.771062 -0.014869 0.106065
v 0.620342 -0.009546 0.133651
v 0.713493 -0.006257 0.126025
v 0.081459 -0.015000 0.126588
v -0.074794 -0.009483 0.113796
v 0.022092 -0.018159 0.113691
v -0.071062 -0.014869 0.106065
v 0.079658 -0.009546 0.133651
v -0.013493 -0.006257 0.126025
v 0.618541 0.015000 0.126588
v 0.774794 0.009483 0.113796
v 0.677908 0.018159 0.113691
v 0.771062 0.014869 0.106065
v 0.620342 0.009546 0.133651
v 0.713493 0.006257 0.126025
v 0.081459 0.015000 0.126588
v -0.074794 0.009483 0.113796
v 0.022092 0.018159 0.113691
v -0.071062 0.014869 0.106065
v 0.079658 0.009546 0.133651
v -0.013493 0.006257 0.126025
v 0.350000 -0.005518 -0.148566
v 0.350000 0.005518 -0.148566
v 0.443154 -0.003289 -0.148153
v 0.256846 -0.003289 -0.148153
v 0.443154 0.003289 -0.148153
v 0.256846 0.003289 -0.148153
v 0.618541 -0.015000 -0.126588
v 0.774794 -0.009483 -0.113796
v 0.677908 -0.018159 -0.113691
v 0.771062 -0.014869 -0.106065
v 0.620342 -0.009546 -0.133651
v 0.713493 -0.006257 -0.126025
v 0.081459 -0.015000 -0.126588
v -0.074794 -0.009483 -0.113796
v 0.022092 -0.018159 -0.113691
v -0.071062 -0.014869 -0.106065
v 0.079658 -0.009546 -0.133651
v -0.013493 -0.006257 -0.126025
v 0.618541 0.015000 -0.126588
v 0.774794 0.009483 -0.113796
v 0.677908 0.018159 -0.113691
v 0.771062 0.014869 -0.106065
v 0.620342 0.009546 -0.133651
v 0.713493 0.006257 -0.126025
v 0.081459 0.015000 -0.126588
v -0.074794 0.009483 -0.113796
v 0.022092 0.018159 -0.113691
v -0.071062 0.014869 -0.106065
v 0.079658 0.009546 -0.133651
v -0.013493 0.006257 -0.126025
v 1.043308 0.000000 -0.020691
v 1.043308 0.000000 0.020691
v 1.041382 0.005323 -0.012335
v 1.041382 0.005323 0.012335
v 1.041382 -0.005323 -0.012335
v 1.041382 -0.005323 0.012335
v -0.343308 0.000000 -0.020691
v -0.343308 0.000000 0.020691
v -0.341382 0.005323 -0.012335
v -0.341382 0.005323 0.012335
v -0.341382 -0.005323 -0.012335
v -0.341382 -0.005323 0.012335
v 0.099261 0.036973 0.019749
v 0.099261 0.036973 -0.019749
v 0.195931 0.038656 0.019920
v 0.195931 0.038656 -0.019920
v -0.049856 0.031707 0.031953
v 0.139136 0.036650 0.039614
v -0.011269 0.031339 0.051924
v -0.049856 0.031707 -0.031953
v 0.139136 0.036650 -0.039614
v -0.011269 0.031339 -0.051924
v -0.142017 0.028452 0.000000
v -0.103176 0.028093 -0.044400
v -0.196131 0.024810 -0.012170
v -0.103176 0.028093 0.044400
v -0.196131 0.024810 0.012170
v 0.600739 0.036973 0.019749
v 0.600739 0.036973 -0.019749
v 0.504069 0.038656 0.019920
v 0.504069 0.038656 -0.019920
v 0.749856 0.031707 0.031953
v 0.560864 0.036650 0.039614
v 0.711269 0.031339 0.051924
v 0.749856 0.031707 -0.031953
v 0.560864 0.036650 -0.039614
v 0.711269 0.031339 -0.051924
v 0.842017 0.028452 0.000000
v 0.803176 0.028093 -0.044400
v 0.896131 0.024810 -0.012170
v 0.803176 0.028093 0.044400
v 0.896131 0.024810 0.012170
v 0.099261 -0.036973 0.019749
v 0.099261 -0.036973 -0.019749
v 0.195931 -0.038656 0.019920
v 0.195931 -0.038656 -0.019920
v -0.049856 -0.031707 0.031953
v 0.139136 -0.036650 0.039614
v -0.011269 -0.031339 0.051924
v -0.049856 -0.031707 -0.031953
v 0.139136 -0.036650 -0.039614
v -0.011269 -0.031339 -0.051924
v -0.142017 -0.028452 0.000000
v -0.103176 -0.028093 -0.044400
v -0.196131 -0.024810 -0.012170
v -0.103176 -0.028093 0.044400
v -0.196131 -0.024810 0.012170
v 0.600739 -0.036973 0.019749
v 0.600739 -0.036973 -0.019749
v 0.504069 -0.038656 0.019920
v 0.504069 -0.038656 -0.019920
v 0.749856 -0.031707 0.031953
v 0.560864 -0.036650 0.039614
v 0.711269 -0.031339 0.051924
v 0.749856 -0.031707 -0.031953
v 0.560864 -0.036650 -0.039614
v 0.711269 -0.031339 -0.051924
v 0.842017 -0.028452 0.000000
v 0.803176 -0.028093 -0.044400
v 0.896131 -0.024810 -0.012170
v 0.803176 -0.028093 0.044400
v 0.896131 -0.024810 0.012170
v 0.350000 -0.028115 0.106696
v 0.200884 -0.022849 0.118901
v 0.293205 -0.031207 0.093039
v 0.142801 -0.025896 0.105349
v 0.499116 -0.022849 0.118901
v 0.406795 -0.031207 0.093039
v 0.557199 -0.025896 0.105349
v 0.442163 -0.014328 0.138647
v 0.257837 -0.014328 0.138647
v 0.442959 -0.008804 0.144959
v 0.257041 -0.008804 0.144959
v 0.592311 -0.020644 0.117520
v 0.534865 -0.012049 0.137437
v 0.107689 -0.020644 0.117520
v 0.165135 -0.012049 0.137437
v 0.350000 0.028115 0.106696
v 0.200884 0.022849 0.118901
v 0.293205 0.031207 0.093039
v 0.142801 0.025896 0.105349
v 0.499116 0.022849 0.118901
v 0.406795 0.031207 0.093039
v 0.557199 0.025896 0.105349
v 0.442163 0.014328 0.138647
v 0.257837 0.014328 0.138647
v 0.442959 0.008804 0.144959
v 0.257041 0.008804 0.144959
v 0.592311 0.020644 0.117520
v 0.534865 0.012049 0.137437
v 0.107689 0.020644 0.117520
v 0.165135 0.012049 0.137437
v 0.350000 -0.028115 -0.106696
v 0.200884 -0.022849 -0.118901
v 0.293205 -0.031207 -0.093039
v 0.142801 -0.025896 -0.105349
v 0.499116 -0.022849 -0.118901
v 0.406795 -0.031207 -0.093039
v 0.557199 -0.025896 -0.105349
v 0.442163 -0.014328 -0.138647
v 0.257837 -0.014328 -0.138647
v 0.442959 -0.008804 -0.144959
v 0.257041 -0.008804 -0.144959
v 0.592311 -0.020644 -0.117520
v 0.534865 -0.012049 -0.137437
v 0.107689 -0.020644 -0.117520
v 0.165135 -0.012049 -0.137437
v 0.350000 0.028115 -0.106696
v 0.200884 0.022849 -0.118901
v 0.293205 0.031207 -0.093039
v 0.142801 0.025896 -0.105349
v 0.499116 0.022849 -0.118901
v 0.406795 0.031207 -0.093039
v 0.557199 0.025896 -0.105349
v 0.442163 0.014328 -0.138647
v 0.257837 0.014328 -0.138647
v 0.442959 0.008804 -0.144959
v 0.257041 0.008804 -0.144959
v 0.592311 0.020644 -0.117520
v 0.534865 0.012049 -0.137437
v 0.107689 0.020644 -0.117520
v 0.165135 0.012049 -0.137437
v 0.904869 0.008521 -0.085683
v 0.997021 0.005266 -0.053730
v 0.898425 0.013846 -0.077415
v 0.991374 0.010564 -0.045185
v 0.904869 -0.008521 -0.085683
v 0.997021 -0.005266 -0.053730
v 0.898425 -0.013846 -0.077415
v 0.991374 -0.010564 -0.045185
v 0.847915 0.000000 -0.105432
v 0.841630 -0.011840 -0.097109
v 0.784183 -0.003245 -0.117028
v 0.841630 0.011840 -0.097109
v 0.784183 0.003245 -0.117028
v 1.026477 0.005312 -0.033015
v 1.026477 -0.005312 -0.033015
v 0.904869 0.008521 0.085683
v 0.997021 0.005266 0.053730
v 0.898425 0.013846 0.077415
v 0.991374 0.010564 0.045185
v 0.904869 -0.008521 0.085683
v 0.997021 -0.005266 0.053730
v 0.898425 -0.013846 0.077415
v 0.991374 -0.010564 0.045185
v 0.847915 0.000000 0.105432
v 0.841630 -0.011840 0.097109
v 0.784183 -0.003245 0.117028
v 0.841630 0.011840 0.097109
v 0.784183 0.003245 0.117028
v 1.026477 0.005312 0.033015
v 1.026477 -0.005312 0.033015
v -0.204869 0.008521 -0.085683
v -0.297021 0.005266 -0.053730
v -0.198425 0.013846 -0.077415
v -0.291374 0.010564 -0.045185
v -0.204869 -0.008521 -0.085683
v -0.297021 -0.005266 -0.053730
v -0.198425 -0.013846 -0.077415
v -0.291374 -0.010564 -0.045185
v -0.147915 0.000000 -0.105432
v -0.141630 -0.011840 -0.097109
v -0.084183 -0.003245 -0.117028
v -0.141630 0.011840 -0.097109
v -0.084183 0.003245 -0.117028
v -0.326477 0.005312 -0.033015
v -0.326477 -0.005312 -0.033015
v -0.204869 0.008521 0.085683
v -0.297021 0.005266 0.053730
v -0.198425 0.013846 0.077415
v -0.291374 0.010564 0.045185
v -0.204869 -0.008521 0.085683
v -0.297021 -0.005266 0.053730
v -0.198425 -0.013846 0.077415
v -0.291374 -0.010564 0.045185
v -0.147915 0.000000 0.105432
v -0.141630 -0.011840 0.097109
v -0.084183 -0.003245 0.117028
v -0.141630 0.011840 0.097109
v -0.084183 0.003245 0.117028
v -0.326477 0.005312 0.033015
v -0.326477 -0.005312 0.033015
v 0.350000 0.038554 0.039962
v 0.292378 0.036519 0.059943
v 0.350000 0.038554 -0.039962
v 0.292378 0.036519 -0.059943
v 0.407622 0.036519 0.059943
v 0.407622 0.036519 -0.059943
v -0.009358 0.025863 0.084639
v -0.102604 0.022570 0.077005
v -0.044982 0.020535 0.096987
v -0.009358 0.025863 -0.084639
v -0.102604 0.022570 -0.077005
v -0.044982 0.020535 -0.096987
v -0.289084 0.015985 -0.012348
v -0.289084 0.015985 0.012348
v -0.324701 0.010657 0.000000
v 0.709358 0.025863 0.084639
v 0.802604 0.022570 0.077005
v 0.744982 0.020535 0.096987
v 0.709358 0.025863 -0.084639
v 0.802604 0.022570 -0.077005
v 0.744982 0.020535 -0.096987
v 0.989084 0.015985 -0.012348
v 0.989084 0.015985 0.012348
v 1.024701 0.010657 0.000000
v 0.350000 -0.038554 0.039962
v 0.292378 -0.036519 0.059943
v 0.350000 -0.038554 -0.039962
v 0.292378 -0.036519 -0.059943
v 0.407622 -0.036519 0.059943
v 0.407622 -0.036519 -0.059943
v -0.009358 -0.025863 0.084639
v -0.102604 -0.022570 0.077005
v -0.044982 -0.020535 0.096987
v -0.009358 -0.025863 -0.084639
v -0.102604 -0.022570 -0.077005
v -0.044982 -0.020535 -0.096987
v -0.289084 -0.015985 -0.012348
v -0.289084 -0.015985 0.012348
v -0.324701 -0.010657 0.000000
v 0.709358 -0.025863 0.084639
v 0.802604 -0.022570 0.077005
v 0.744982 -0.020535 0.096987
v 0.709358 -0.025863 -0.084639
v 0.802604 -0.022570 -0.077005
v 0.744982 -0.020535 -0.096987
v 0.989084 -0.015985 -0.012348
v 0.989084 -0.015985 0.012348
v 1.024701 -0.010657 0.000000
v 0.536491 0.000000 0.144579
v 0.629735 -0.003293 0.136947
v 0.163509 0.000000 0.144579
v 0.070265 -0.003293 0.136947
v 0.629735 0.003293 0.136947
v 0.070265 0.003293 0.136947
v 0.536491 0.000000 -0.144579
v 0.629735 -0.003293 -0.136947
v 0.163509 0.000000 -0.144579
v 0.070265 -0.003293 -0.136947
v 0.629735 0.003293 -0.136947
v 0.070265 0.003293 -0.136947
f 1 167 164
f 1 164 163
f 1 163 165
f 1 165 166
f 1 166 167
f 2 169 172
f 6 192 190
f 12 222 219
f 11 216 215
f 8 199 201
f 4 182 179
f 4 179 178
f 4 178 180
f 4 180 181
f 4 181 182
f 5 186 185
f 3 174 177
f 7 193 197
f 9 205 206
f 10 212 208
f 12 221 218
f 6 189 188
f 2 170 168
f 8 202 198
f 11 217 213
f 6 191 189
f 12 220 221
f 11 214 217
f 8 200 202
f 2 171 170
f 10 210 209
f 5 183 184
f 3 175 173
f 7 196 194
f 9 207 204
f 10 211 210
f 5 187 183
f 3 176 175
f 7 195 196
f 9 203 207
f 6 188 192
f 2 168 169
f 8 198 199
f 11 213 216
f 12 218 222
f 10 208 211
f 5 185 187
f 3 177 176
f 7 197 195
f 9 206 203
f 5 184 186
f 3 173 174
f 7 194 193
f 9 204 205
f 10 209 212
f 6 190 191
f 12 219 220
f 11 215 214
f 8 201 200
f 2 172 171
f 35 357 358
f 18 255 256
f 19 262 261
f 40 388 387
f 42 400 399
f 34 352 351
f 33 347 348
f 25 298 300
f 36 364 366
f 20 269 267
f 32 339 340
f 23 285 287
f 24 293 291
f 37 370 369
f 41 396 395
f 34 353 354
f 33 346 345
f 25 299 297
f 36 365 363
f 20 268 270
f 17 249 247
f 14 231 229
f 13 226 223
f 15 238 235
f 16 244 241
f 18 257 253
f 35 359 355
f 42 402 398
f 40 390 386
f 19 264 260
f 30 327 325
f 27 309 307
f 22 282 278
f 28 317 313
f 29 322 319
f 32 341 337
f 23 286 283
f 24 294 290
f 37 372 368
f 41 394 392
f 35 358 356
f 18 256 254
f 19 261 259
f 40 387 385
f 42 399 397
f 34 351 349
f 33 348 344
f 25 300 296
f 36 366 362
f 20 267 265
f 32 340 338
f 23 287 284
f 24 291 289
f 37 369 367
f 41 395 391
f 34 354 350
f 33 345 343
f 25 297 295
f 36 363 361
f 20 270 266
f 14 234 230
f 13 227 224
f 15 239 236
f 16 245 242
f 17 252 248
f 21 275 272
f 31 334 331
f 26 304 301
f 38 377 373
f 39 382 380
f 27 312 308
f 22 279 277
f 28 316 314
f 29 323 320
f 30 330 326
f 31 335 332
f 26 305 302
f 38 376 374
f 39 383 379
f 21 274 271
f 14 232 234
f 13 225 227
f 15 237 239
f 16 243 245
f 17 250 252
f 21 273 275
f 31 336 334
f 26 306 304
f 38 378 377
f 39 381 382
f 27 311 312
f 22 281 279
f 28 315 316
f 29 321 323
f 30 328 330
f 31 333 335
f 26 303 305
f 38 375 376
f 39 384 383
f 21 276 274
f 14 229 232
f 13 223 225
f 15 235 237
f 16 241 243
f 17 247 250
f 21 271 273
f 31 332 336
f 26 302 306
f 38 374 378
f 39 379 381
f 27 307 311
f 22 278 281
f 28 313 315
f 29 319 321
f 30 325 328
f 31 331 333
f 26 301 303
f 38 373 375
f 39 380 384
f 21 272 276
f 17 248 251
f 14 230 233
f 13 224 228
f 15 236 240
f 16 242 246
f 18 254 258
f 35 356 360
f 42 397 401
f 40 385 389
f 19 259 263
f 30 326 329
f 27 308 310
f 22 277 280
f 28 314 318
f 29 320 324
f 32 338 342
f 23 284 288
f 24 289 292
f 37 367 371
f 41 391 393
f 35 355 357
f 18 253 255
f 19 260 262
f 40 386 388
f 42 398 400
f 34 350 352
f 33 343 347
f 25 295 298
f 36 361 364
f 20 266 269
f 32 337 339
f 23 283 285
f 24 290 293
f 37 368 370
f 41 392 396
f 34 349 353
f 33 344 346
f 25 296 299
f 36 362 365
f 20 265 268
f 17 251 249
f 14 233 231
f 13 228 226
f 15 240 238
f 16 246 244
f 18 258 257
f 35 360 359
f 42 401 402
f 40 389 390
f 19 263 264
f 30 329 327
f 27 310 309
f 22 280 282
f 28 318 317
f 29 324 322
f 32 342 341
f 23 288 286
f 24 292 294
f 37 371 372
f 41 393 394
f 107 409 416
f 103 405 408
f 104 411 406
f 110 414 412
f 113 417 415
f 118 431 424
f 154 488 492
f 141 575 582
f 162 563 565
f 121 519 514
f 142 454 461
f 129 450 453
f 130 456 451
f 144 459 457
f 146 462 460
f 151 472 475
f 131 446 439
f 136 506 496
f 161 535 533
f 126 541 551
f 116 570 579
f 108 480 483
f 106 421 426
f 112 511 521
f 115 556 566
f 119 484 489
f 156 580 578
f 139 567 560
f 160 522 518
f 120 427 429
f 149 544 547
f 132 468 465
f 128 436 441
f 145 499 504
f 148 530 537
f 155 548 550
f 133 466 476
f 134 442 444
f 157 505 502
f 124 536 526
f 109 491 481
f 105 423 420
f 111 513 510
f 114 564 555
f 117 581 571
f 125 549 540
f 152 477 473
f 137 445 447
f 158 503 507
f 123 525 534
f 143 474 469
f 127 438 435
f 135 495 498
f 147 532 529
f 150 552 545
f 153 490 487
f 140 577 574
f 138 559 562
f 159 517 520
f 122 430 432
f 107 590 589
f 103 584 583
f 104 585 586
f 110 592 593
f 113 595 596
f 118 598 599
f 154 636 633
f 141 621 620
f 162 642 640
f 121 601 603
f 142 623 622
f 129 611 607
f 130 609 612
f 144 625 626
f 146 628 629
f 151 632 631
f 131 613 614
f 136 616 618
f 161 638 641
f 126 606 605
f 47 407 167
f 44 403 164
f 43 404 163
f 45 410 165
f 46 413 166
f 49 422 169
f 72 486 192
f 102 573 222
f 96 561 216
f 79 512 199
f 62 452 182
f 59 448 179
f 58 449 178
f 60 455 180
f 61 458 181
f 66 470 186
f 54 437 174
f 73 494 193
f 85 531 205
f 92 539 212
f 101 568 221
f 69 478 189
f 50 419 170
f 82 509 202
f 97 554 217
f 71 482 191
f 100 576 220
f 94 558 214
f 80 516 200
f 51 425 171
f 90 542 210
f 63 463 183
f 55 434 175
f 76 497 196
f 87 528 207
f 91 546 211
f 67 464 187
f 56 440 176
f 75 500 195
f 83 524 203
f 68 479 188
f 48 418 168
f 78 508 198
f 93 553 213
f 98 569 218
f 88 538 208
f 65 471 185
f 57 443 177
f 77 501 197
f 86 523 206
f 64 467 184
f 53 433 173
f 74 493 194
f 84 527 204
f 89 543 209
f 70 485 190
f 99 572 219
f 95 557 215
f 81 515 201
f 52 428 172
f 109 591 357
f 105 587 255
f 111 588 262
f 114 594 388
f 117 597 400
f 125 600 352
f 152 634 347
f 137 619 298
f 158 639 364
f 123 602 269
f 143 624 339
f 127 608 285
f 135 610 293
f 147 627 370
f 150 630 396
f 153 635 353
f 140 615 346
f 138 617 299
f 159 637 365
f 122 604 268
f 107 416 249
f 103 408 231
f 104 406 226
f 110 412 238
f 113 415 244
f 118 424 257
f 154 492 359
f 141 582 402
f 162 565 390
f 121 514 264
f 142 461 327
f 129 453 309
f 130 451 282
f 144 457 317
f 146 460 322
f 151 475 341
f 131 439 286
f 136 496 294
f 161 533 372
f 126 551 394
f 116 579 358
f 108 483 256
f 106 426 261
f 112 521 387
f 115 566 399
f 119 489 351
f 156 578 348
f 139 560 300
f 160 518 366
f 120 429 267
f 149 547 340
f 132 465 287
f 128 441 291
f 145 504 369
f 148 537 395
f 155 550 354
f 133 476 345
f 134 444 297
f 157 502 363
f 124 526 270
f 109 481 234
f 105 420 227
f 111 510 239
f 114 555 245
f 117 571 252
f 125 540 275
f 152 473 334
f 137 447 304
f 158 507 377
f 123 534 382
f 143 469 312
f 127 435 279
f 135 498 316
f 147 529 323
f 150 545 330
f 153 487 335
f 140 574 305
f 138 562 376
f 159 520 383
f 122 432 274
f 107 589 232
f 103 583 225
f 104 586 237
f 110 593 243
f 113 596 250
f 118 599 273
f 154 633 336
f 141 620 306
f 162 640 378
f 121 603 381
f 142 622 311
f 129 607 281
f 130 612 315
f 144 626 321
f 146 629 328
f 151 631 333
f 131 614 303
f 136 618 375
f 161 641 384
f 126 605 276
f 44 409 229
f 43 405 223
f 45 411 235
f 46 414 241
f 47 417 247
f 52 431 271
f 70 488 332
f 99 575 302
f 95 563 374
f 81 519 379
f 59 454 307
f 58 450 278
f 60 456 313
f 61 459 319
f 62 462 325
f 65 472 331
f 57 446 301
f 77 506 373
f 86 535 380
f 88 541 272
f 98 570 248
f 68 480 230
f 48 421 224
f 78 511 236
f 93 556 242
f 69 484 254
f 101 580 356
f 97 567 397
f 82 522 385
f 50 427 259
f 89 544 326
f 64 468 308
f 53 436 277
f 74 499 314
f 84 530 320
f 90 548 338
f 63 466 284
f 55 442 289
f 76 505 367
f 87 536 391
f 72 491 355
f 49 423 253
f 79 513 260
f 96 564 386
f 102 581 398
f 91 549 350
f 67 477 343
f 56 445 295
f 75 503 361
f 83 525 266
f 66 474 337
f 54 438 283
f 73 495 290
f 85 532 368
f 92 552 392
f 71 490 349
f 100 577 344
f 94 559 296
f 80 517 362
f 51 430 265
f 116 590 251
f 108 584 233
f 106 585 228
f 112 592 240
f 115 595 246
f 119 598 258
f 156 636 360
f 139 621 401
f 160 642 389
f 120 601 263
f 149 623 329
f 132 611 310
f 128 609 280
f 145 625 318
f 148 628 324
f 155 632 342
f 133 613 288
f 134 616 292
f 157 638 371
f 124 606 393
f 44 407 409
f 43 403 405
f 45 404 411
f 46 410 414
f 47 413 417
f 52 422 431
f 70 486 488
f 99 573 575
f 95 561 563
f 81 512 519
f 59 452 454
f 58 448 450
f 60 449 456
f 61 455 459
f 62 458 462
f 65 470 472
f 57 437 446
f 77 494 506
f 86 531 535
f 88 539 541
f 98 568 570
f 68 478 480
f 48 419 421
f 78 509 511
f 93 554 556
f 69 482 484
f 101 576 580
f 97 558 567
f 82 516 522
f 50 425 427
f 89 542 544
f 64 463 468
f 53 434 436
f 74 497 499
f 84 528 530
f 90 546 548
f 63 464 466
f 55 440 442
f 76 500 505
f 87 524 536
f 72 479 491
f 49 418 423
f 79 508 513
f 96 553 564
f 102 569 581
f 91 538 549
f 67 471 477
f 56 443 445
f 75 501 503
f 83 523 525
f 66 467 474
f 54 433 438
f 73 493 495
f 85 527 532
f 92 543 552
f 71 485 490
f 100 572 577
f 94 557 559
f 80 515 517
f 51 428 430
f 116 591 590
f 108 587 584
f 106 588 585
f 112 594 592
f 115 597 595
f 119 600 598
f 156 634 636
f 139 619 621
f 160 639 642
f 120 602 601
f 149 624 623
f 132 608 611
f 128 610 609
f 145 627 625
f 148 630 628
f 155 635 632
f 133 615 613
f 134 617 616
f 157 637 638
f 124 604 606
f 44 164 407
f 43 163 403
f 45 165 404
f 46 166 410
f 47 167 413
f 52 172 422
f 70 190 486
f 99 219 573
f 95 215 561
f 81 201 512
f 59 179 452
f 58 178 448
f 60 180 449
f 61 181 455
f 62 182 458
f 65 185 470
f 57 177 437
f 77 197 494
f 86 206 531
f 88 208 539
f 98 218 568
f 68 188 478
f 48 168 419
f 78 198 509
f 93 213 554
f 69 189 482
f 101 221 576
f 97 217 558
f 82 202 516
f 50 170 425
f 89 209 542
f 64 184 463
f 53 173 434
f 74 194 497
f 84 204 528
f 90 210 546
f 63 183 464
f 55 175 440
f 76 196 500
f 87 207 524
f 72 192 479
f 49 169 418
f 79 199 508
f 96 216 553
f 102 222 569
f 91 211 538
f 67 187 471
f 56 176 443
f 75 195 501
f 83 203 523
f 66 186 467
f 54 174 433
f 73 193 493
f 85 205 527
f 92 212 543
f 71 191 485
f 100 220 572
f 94 214 557
f 80 200 515
f 51 171 428
f 116 358 591
f 108 256 587
f 106 261 588
f 112 387 594
f 115 399 597
f 119 351 600
f 156 348 634
f 139 300 619
f 160 366 639
f 120 267 602
f 149 340 624
f 132 287 608
f 128 291 610
f 145 369 627
f 148 395 630
f 155 354 635
f 133 345 615
f 134 297 617
f 157 363 637
f 124 270 604
f 47 247 416
f 44 229 408
f 43 223 406
f 45 235 412
f 46 241 415
f 49 253 424
f 72 355 492
f 102 398 582
f 96 386 565
f 79 260 514
f 62 325 461
f 59 307 453
f 58 278 451
f 60 313 457
f 61 319 460
f 66 337 475
f 54 283 439
f 73 290 496
f 85 368 533
f 92 392 551
f 101 356 579
f 69 254 483
f 50 259 426
f 82 385 521
f 97 397 566
f 71 349 489
f 100 344 578
f 94 296 560
f 80 362 518
f 51 265 429
f 90 338 547
f 63 284 465
f 55 289 441
f 76 367 504
f 87 391 537
f 91 350 550
f 67 343 476
f 56 295 444
f 75 361 502
f 83 266 526
f 68 230 481
f 48 224 420
f 78 236 510
f 93 242 555
f 98 248 571
f 88 272 540
f 65 331 473
f 57 301 447
f 77 373 507
f 86 380 534
f 64 308 469
f 53 277 435
f 74 314 498
f 84 320 529
f 89 326 545
f 70 332 487
f 99 302 574
f 95 374 562
f 81 379 520
f 52 271 432
f 109 234 589
f 105 227 583
f 111 239 586
f 114 245 593
f 117 252 596
f 125 275 599
f 152 334 633
f 137 304 620
f 158 377 640
f 123 382 603
f 143 312 622
f 127 279 607
f 135 316 612
f 147 323 626
f 150 330 629
f 153 335 631
f 140 305 614
f 138 376 618
f 159 383 641
f 122 274 605
f 107 232 409
f 103 225 405
f 104 237 411
f 110 243 414
f 113 250 417
f 118 273 431
f 154 336 488
f 141 306 575
f 162 378 563
f 121 381 519
f 142 311 454
f 129 281 450
f 130 315 456
f 144 321 459
f 146 328 462
f 151 333 472
f 131 303 446
f 136 375 506
f 161 384 535
f 126 276 541
f 116 251 570
f 108 233 480
f 106 228 421
f 112 240 511
f 115 246 556
f 119 258 484
f 156 360 580
f 139 401 567
f 160 389 522
f 120 263 427
f 149 329 544
f 132 310 468
f 128 280 436
f 145 318 499
f 148 324 530
f 155 342 548
f 133 288 466
f 134 292 442
f 157 371 505
f 124 393 536
f 109 357 491
f 105 255 423
f 111 262 513
f 114 388 564
f 117 400 581
f 125 352 549
f 152 347 477
f 137 298 445
f 158 364 503
f 123 269 525
f 143 339 474
f 127 285 438
f 135 293 495
f 147 370 532
f 150 396 552
f 153 353 490
f 140 346 577
f 138 299 559
f 159 365 517
f 122 268 430
f 107 249 590
f 103 231 584
f 104 226 585
f 110 238 592
f 113 244 595
f 118 257 598
f 154 359 636
f 141 402 621
f 162 390 642
f 121 264 601
f 142 327 623
f 129 309 611
f 130 282 609
f 144 317 625
f 146 322 628
f 151 341 632
f 131 286 613
f 136 294 616
f 161 372 638
f 126 394 606
f 47 416 407
f 44 408 403
f 43 406 404
f 45 412 410
f 46 415 413
f 49 424 422
f 72 492 486
f 102 582 573
f 96 565 561
f 79 514 512
f 62 461 452
f 59 453 448
f 58 451 449
f 60 457 455
f 61 460 458
f 66 475 470
f 54 439 437
f 73 496 494
f 85 533 531
f 92 551 539
f 101 579 568
f 69 483 478
f 50 426 419
f 82 521 509
f 97 566 554
f 71 489 482
f 100 578 576
f 94 560 558
f 80 518 516
f 51 429 425
f 90 547 542
f 63 465 463
f 55 441 434
f 76 504 497
f 87 537 528
f 91 550 546
f 67 476 464
f 56 444 440
f 75 502 500
f 83 526 524
f 68 481 479
f 48 420 418
f 78 510 508
f 93 555 553
f 98 571 569
f 88 540 538
f 65 473 471
f 57 447 443
f 77 507 501
f 86 534 523
f 64 469 467
f 53 435 433
f 74 498 493
f 84 529 527
f 89 545 543
f 70 487 485
f 99 574 572
f 95 562 557
f 81 520 515
f 52 432 428
f 109 589 591
f 105 583 587
f 111 586 588
f 114 593 594
f 117 596 597
f 125 599 600
f 152 633 634
f 137 620 619
f 158 640 639
f 123 603 602
f 143 622 624
f 127 607 608
f 135 612 610
f 147 626 627
f 150 629 630
f 153 631 635
f 140 614 615
f 138 618 617
f 159 641 637
f 122 605 604
f 407 164 167
f 403 163 164
f 404 165 163
f 410 166 165
f 413 167 166
f 422 172 169
f 486 190 192
f 573 219 222
f 561 215 216
f 512 201 199
f 452 179 182
f 448 178 179
f 449 180 178
f 455 181 180
f 458 182 181
f 470 185 186
f 437 177 174
f 494 197 193
f 531 206 205
f 539 208 212
f 568 218 221
f 478 188 189
f 419 168 170
f 509 198 202
f 554 213 217
f 482 189 191
f 576 221 220
f 558 217 214
f 516 202 200
f 425 170 171
f 542 209 210
f 463 184 183
f 434 173 175
f 497 194 196
f 528 204 207
f 546 210 211
f 464 183 187
f 440 175 176
f 500 196 195
f 524 207 203
f 479 192 188
f 418 169 168
f 508 199 198
f 553 216 213
f 569 222 218
f 538 211 208
f 471 187 185
f 443 176 177
f 501 195 197
f 523 203 206
f 467 186 184
f 433 174 173
f 493 193 194
f 527 205 204
f 543 212 209
f 485 191 190
f 572 220 219
f 557 214 215
f 515 200 201
f 428 171 172
f 591 358 357
f 587 256 255
f 588 261 262
f 594 387 388
f 597 399 400
f 600 351 352
f 634 348 347
f 619 300 298
f 639 366 364
f 602 267 269
f 624 340 339
f 608 287 285
f 610 291 293
f 627 369 370
f 630 395 396
f 635 354 353
f 615 345 346
f 617 297 299
f 637 363 365
f 604 270 268
f 416 247 249
f 408 229 231
f 406 223 226
f 412 235 238
f 415 241 244
f 424 253 257
f 492 355 359
f 582 398 402
f 565 386 390
f 514 260 264
f 461 325 327
f 453 307 309
f 451 278 282
f 457 313 317
f 460 319 322
f 475 337 341
f 439 283 286
f 496 290 294
f 533 368 372
f 551 392 394
f 579 356 358
f 483 254 256
f 426 259 261
f 521 385 387
f 566 397 399
f 489 349 351
f 578 344 348
f 560 296 300
f 518 362 366
f 429 265 267
f 547 338 340
f 465 284 287
f 441 289 291
f 504 367 369
f 537 391 395
f 550 350 354
f 476 343 345
f 444 295 297
f 502 361 363
f 526 266 270
f 481 230 234
f 420 224 227
f 510 236 239
f 555 242 245
f 571 248 252
f 540 272 275
f 473 331 334
f 447 301 304
f 507 373 377
f 534 380 382
f 469 308 312
f 435 277 279
f 498 314 316
f 529 320 323
f 545 326 330
f 487 332 335
f 574 302 305
f 562 374 376
f 520 379 383
f 432 271 274
f 589 234 232
f 583 227 225
f 586 239 237
f 593 245 243
f 596 252 250
f 599 275 273
f 633 334 336
f 620 304 306
f 640 377 378
f 603 382 381
f 622 312 311
f 607 279 281
f 612 316 315
f 626 323 321
f 629 330 328
f 631 335 333
f 614 305 303
f 618 376 375
f 641 383 384
f 605 274 276
f 409 232 229
f 405 225 223
f 411 237 235
f 414 243 241
f 417 250 247
f 431 273 271
f 488 336 332
f 575 306 302
f 563 378 374
f 519 381 379
f 454 311 307
f 450 281 278
f 456 315 313
f 459 321 319
f 462 328 325
f 472 333 331
f 446 303 301
f 506 375 373
f 535 384 380
f 541 276 272
f 570 251 248
f 480 233 230
f 421 228 224
f 511 240 236
f 556 246 242
f 484 258 254
f 580 360 356
f 567 401 397
f 522 389 385
f 427 263 259
f 544 329 326
f 468 310 308
f 436 280 277
f 499 318 314
f 530 324 320
f 548 342 338
f 466 288 284
f 442 292 289
f 505 371 367
f 536 393 391
f 491 357 355
f 423 255 253
f 513 262 260
f 564 388 386
f 581 400 398
f 549 352 350
f 477 347 343
f 445 298 295
f 503 364 361
f 525 269 266
f 474 339 337
f 438 285 283
f 495 293 290
f 532 370 368
f 552 396 392
f 490 353 349
f 577 346 344
f 559 299 296
f 517 365 362
f 430 268 265
f 590 249 251
f 584 231 233
f 585 226 228
f 592 238 240
f 595 244 246
f 598 257 258
f 636 359 360
f 621 402 401
f 642 390 389
f 601 264 263
f 623 327 329
f 611 309 310
f 609 282 280
f 625 317 318
f 628 322 324
f 632 341 342
f 613 286 288
f 616 294 292
f 638 372 371
f 606 394 393
f 407 416 409
f 403 408 405
f 404 406 411
f 410 412 414
f 413 415 417
f 422 424 431
f 486 492 488
f 573 582 575
f 561 565 563
f 512 514 519
f 452 461 454
f 448 453 450
f 449 451 456
f 455 457 459
f 458 460 462
f 470 475 472
f 437 439 446
f 494 496 506
f 531 533 535
f 539 551 541
f 568 579 570
f 478 483 480
f 419 426 421
f 509 521 511
f 554 566 556
f 482 489 484
f 576 578 580
f 558 560 567
f 516 518 522
f 425 429 427
f 542 547 544
f 463 465 468
f 434 441 436
f 497 504 499
f 528 537 530
f 546 550 548
f 464 476 466
f 440 444 442
f 500 502 505
f 524 526 536
f 479 481 491
f 418 420 423
f 508 510 513
f 553 555 564
f 569 571 581
f 538 540 549
f 471 473 477
f 443 447 445
f 501 507 503
f 523 534 525
f 467 469 474
f 433 435 438
f 493 498 495
f 527 529 532
f 543 545 552
f 485 487 490
f 572 574 577
f 557 562 559
f 515 520 517
f 428 432 430
f 591 589 590
f 587 583 584
f 588 586 585
f 594 593 592
f 597 596 595
f 600 599 598
f 634 633 636
f 619 620 621
f 639 640 642
f 602 603 601
f 624 622 623
f 608 607 611
f 610 612 609
f 627 626 625
f 630 629 628
f 635 631 632
f 615 614 613
f 617 618 616
f 637 641 638
f 604 605 606
f 643 809 806
f 643 806 805
f 643 805 807
f 643 807 808
f 643 808 809
f 644 811 814
f 648 834 832
f 654 864 861
f 653 858 857
f 650 841 843
f 646 824 821
f 646 821 820
f 646 820 822
f 646 822 823
f 646 823 824
f 647 828 827
f 645 816 819
f 649 835 839
f 651 847 848
f 652 854 850
f 654 863 860
f 648 831 830
f 644 812 810
f 650 844 840
f 653 859 855
f 648 833 831
f 654 862 863
f 653 856 859
f 650 842 844
f 644 813 812
f 652 852 851
f 647 825 826
f 645 817 815
f 649 838 836
f 651 849 846
f 652 853 852
f 647 829 825
f 645 818 817
f 649 837 838
f 651 845 849
f 648 830 834
f 644 810 811
f 650 840 841
f 653 855 858
f 654 860 864
f 652 850 853
f 647 827 829
f 645 819 818
f 649 839 837
f 651 848 845
f 647 826 828
f 645 815 816
f 649 836 835
f 651 846 847
f 652 851 854
f 648 832 833
f 654 861 862
f 653 857 856
f 650 843 842
f 644 814 813
f 677 999 1000
f 660 897 898
f 661 904 903
f 682 1030 1029
f 684 1042 1041
f 676 994 993
f 675 989 990
f 667 940 942
f 678 1006 1008
f 662 911 909
f 674 981 982
f 665 927 929
f 666 935 933
f 679 1012 1011
f 683 1038 1037
f 676 995 996
f 675 988 987
f 667 941 939
f 678 1007 1005
f 662 910 912
f 659 891 889
f 656 873 871
f 655 868 865
f 657 880 877
f 658 886 883
f 660 899 895
f 677 1001 997
f 684 1044 1040
f 682 1032 1028
f 661 906 902
f 672 969 967
f 669 951 949
f 664 924 920
f 670 959 955
f 671 964 961
f 674 983 979
f 665 928 925
f 666 936 932
f 679 1014 1010
f 683 1036 1034
f 677 1000 998
f 660 898 896
f 661 903 901
f 682 1029 1027
f 684 1041 1039
f 676 993 991
f 675 990 986
f 667 942 938
f 678 1008 1004
f 662 909 907
f 674 982 980
f 665 929 926
f 666 933 931
f 679 1011 1009
f 683 1037 1033
f 676 996 992
f 675 987 985
f 667 939 937
f 678 1005 1003
f 662 912 908
f 656 876 872
f 655 869 866
f 657 881 878
f 658 887 884
f 659 894 890
f 663 917 914
f 673 976 973
f 668 946 943
f 680 1019 1015
f 681 1024 1022
f 669 954 950
f 664 921 919
f 670 958 956
f 671 965 962
f 672 972 968
f 673 977 974
f 668 947 944
f 680 1018 1016
f 681 1025 1021
f 663 916 913
f 656 874 876
f 655 867 869
f 657 879 881
f 658 885 887
f 659 892 894
f 663 915 917
f 673 978 976
f 668 948 946
f 680 1020 1019
f 681 1023 1024
f 669 953 954
f 664 923 921
f 670 957 958
f 671 963 965
f 672 970 972
f 673 975 977
f 668 945 947
f 680 1017 1018
f 681 1026 1025
f 663 918 916
f 656 871 874
f 655 865 867
f 657 877 879
f 658 883 885
f 659 889 892
f 663 913 915
f 673 974 978
f 668 944 948
f 680 1016 1020
f 681 1021 1023
f 669 949 953
f 664 920 923
f 670 955 957
f 671 961 963
f 672 967 970
f 673 973 975
f 668 943 945
f 680 1015 1017
f 681 1022 1026
f 663 914 918
f 659 890 893
f 656 872 875
f 655 866 870
f 657 878 882
f 658 884 888
f 660 896 900
f 677 998 1002
f 684 1039 1043
f 682 1027 1031
f 661 901 905
f 672 968 971
f 669 950 952
f 664 919 922
f 670 956 960
f 671 962 966
f 674 980 984
f 665 926 930
f 666 931 934
f 679 1009 1013
f 683 1033 1035
f 677 997 999
f 660 895 897
f 661 902 904
f 682 1028 1030
f 684 1040 1042
f 676 992 994
f 675 985 989
f 667 937 940
f 678 1003 1006
f 662 908 911
f 674 979 981
f 665 925 927
f 666 932 935
f 679 1010 1012
f 683 1034 1038
f 676 991 995
f 675 986 988
f 667 938 941
f 678 1004 1007
f 662 907 910
f 659 893 891
f 656 875 873
f 655 870 868
f 657 882 880
f 658 888 886
f 660 900 899
f 677 1002 1001
f 684 1043 1044
f 682 1031 1032
f 661 905 906
f 672 971 969
f 669 952 951
f 664 922 924
f 670 960 959
f 671 966 964
f 674 984 983
f 665 930 928
f 666 934 936
f 679 1013 1014
f 683 1035 1036
f 749 1051 1058
f 745 1047 1050
f 746 1053 1048
f 752 1056 1054
f 755 1059 1057
f 760 1073 1066
f 796 1130 1134
f 783 1217 1224
f 804 1205 1207
f 763 1161 1156
f 784 1096 1103
f 771 1092 1095
f 772 1098 1093
f 786 1101 1099
f 788 1104 1102
f 793 1114 1117
f 773 1088 1081
f 778 1148 1138
f 803 1177 1175
f 768 1183 1193
f 758 1212 1221
f 750 1122 1125
f 748 1063 1068
f 754 1153 1163
f 757 1198 1208
f 761 1126 1131
f 798 1222 1220
f 781 1209 1202
f 802 1164 1160
f 762 1069 1071
f 791 1186 1189
f 774 1110 1107
f 770 1078 1083
f 787 1141 1146
f 790 1172 1179
f 797 1190 1192
f 775 1108 1118
f 776 1084 1086
f 799 1147 1144
f 766 1178 1168
f 751 1133 1123
f 747 1065 1062
f 753 1155 1152
f 756 1206 1197
f 759 1223 1213
f 767 1191 1182
f 794 1119 1115
f 779 1087 1089
f 800 1145 1149
f 765 1167 1176
f 785 1116 1111
f 769 1080 1077
f 777 1137 1140
f 789 1174 1171
f 792 1194 1187
f 795 1132 1129
f 782 1219 1216
f 780 1201 1204
f 801 1159 1162
f 764 1072 1074
f 749 1232 1231
f 745 1226 1225
f 746 1227 1228
f 752 1234 1235
f 755 1237 1238
f 760 1240 1241
f 796 1278 1275
f 783 1263 1262
f 804 1284 1282
f 763 1243 1245
f 784 1265 1264
f 771 1253 1249
f 772 1251 1254
f 786 1267 1268
f 788 1270 1271
f 793 1274 1273
f 773 1255 1256
f 778 1258 1260
f 803 1280 1283
f 768 1248 1247
f 689 1049 809
f 686 1045 806
f 685 1046 805
f 687 1052 807
f 688 1055 808
f 691 1064 811
f 714 1128 834
f 744 1215 864
f 738 1203 858
f 721 1154 841
f 704 1094 824
f 701 1090 821
f 700 1091 820
f 702 1097 822
f 703 1100 823
f 708 1112 828
f 696 1079 816
f 715 1136 835
f 727 1173 847
f 734 1181 854
f 743 1210 863
f 711 1120 831
f 692 1061 812
f 724 1151 844
f 739 1196 859
f 713 1124 833
f 742 1218 862
f 736 1200 856
f 722 1158 842
f 693 1067 813
f 732 1184 852
f 705 1105 825
f 697 1076 817
f 718 1139 838
f 729 1170 849
f 733 1188 853
f 709 1106 829
f 698 1082 818
f 717 1142 837
f 725 1166 845
f 710 1121 830
f 690 1060 810
f 720 1150 840
f 735 1195 855
f 740 1211 860
f 730 1180 850
f 707 1113 827
f 699 1085 819
f 719 1143 839
f 728 1165 848
f 706 1109 826
f 695 1075 815
f 716 1135 836
f 726 1169 846
f 731 1185 851
f 712 1127 832
f 741 1214 861
f 737 1199 857
f 723 1157 843
f 694 1070 814
f 751 1233 999
f 747 1229 897
f 753 1230 904
f 756 1236 1030
f 759 1239 1042
f 767 1242 994
f 794 1276 989
f 779 1261 940
f 800 1281 1006
f 765 1244 911
f 785 1266 981
f 769 1250 927
f 777 1252 935
f 789 1269 1012
f 792 1272 1038
f 795 1277 995
f 782 1257 988
f 780 1259 941
f 801 1279 1007
f 764 1246 910
f 749 1058 891
f 745 1050 873
f 746 1048 868
f 752 1054 880
f 755 1057 886
f 760 1066 899
f 796 1134 1001
f 783 1224 1044
f 804 1207 1032
f 763 1156 906
f 784 1103 969
f 771 1095 951
f 772 1093 924
f 786 1099 959
f 788 1102 964
f 793 1117 983
f 773 1081 928
f 778 1138 936
f 803 1175 1014
f 768 1193 1036
f 758 1221 1000
f 750 1125 898
f 748 1068 903
f 754 1163 1029
f 757 1208 1041
f 761 1131 993
f 798 1220 990
f 781 1202 942
f 802 1160 1008
f 762 1071 909
f 791 1189 982
f 774 1107 929
f 770 1083 933
f 787 1146 1011
f 790 1179 1037
f 797 1192 996
f 775 1118 987
f 776 1086 939
f 799 1144 1005
f 766 1168 912
f 751 1123 876
f 747 1062 869
f 753 1152 881
f 756 1197 887
f 759 1213 894
f 767 1182 917
f 794 1115 976
f 779 1089 946
f 800 1149 1019
f 765 1176 1024
f 785 1111 954
f 769 1077 921
f 777 1140 958
f 789 1171 965
f 792 1187 972
f 795 1129 977
f 782 1216 947
f 780 1204 1018
f 801 1162 1025
f 764 1074 916
f 749 1231 874
f 745 1225 867
f 746 1228 879
f 752 1235 885
f 755 1238 892
f 760 1241 915
f 796 1275 978
f 783 1262 948
f 804 1282 1020
f 763 1245 1023
f 784 1264 953
f 771 1249 923
f 772 1254 957
f 786 1268 963
f 788 1271 970
f 793 1273 975
f 773 1256 945
f 778 1260 1017
f 803 1283 1026
f 768 1247 918
f 686 1051 871
f 685 1047 865
f 687 1053 877
f 688 1056 883
f 689 1059 889
f 694 1073 913
f 712 1130 974
f 741 1217 944
f 737 1205 1016
f 723 1161 1021
f 701 1096 949
f 700 1092 920
f 702 1098 955
f 703 1101 961
f 704 1104 967
f 707 1114 973
f 699 1088 943
f 719 1148 1015
f 728 1177 1022
f 730 1183 914
f 740 1212 890
f 710 1122 872
f 690 1063 866
f 720 1153 878
f 735 1198 884
f 711 1126 896
f 743 1222 998
f 739 1209 1039
f 724 1164 1027
f 692 1069 901
f 731 1186 968
f 706 1110 950
f 695 1078 919
f 716 1141 956
f 726 1172 962
f 732 1190 980
f 705 1108 926
f 697 1084 931
f 718 1147 1009
f 729 1178 1033
f 714 1133 997
f 691 1065 895
f 721 1155 902
f 738 1206 1028
f 744 1223 1040
f 733 1191 992
f 709 1119 985
f 698 1087 937
f 717 1145 1003
f 725 1167 908
f 708 1116 979
f 696 1080 925
f 715 1137 932
f 727 1174 1010
f 734 1194 1034
f 713 1132 991
f 742 1219 986
f 736 1201 938
f 722 1159 1004
f 693 1072 907
f 758 1232 893
f 750 1226 875
f 748 1227 870
f 754 1234 882
f 757 1237 888
f 761 1240 900
f 798 1278 1002
f 781 1263 1043
f 802 1284 1031
f 762 1243 905
f 791 1265 971
f 774 1253 952
f 770 1251 922
f 787 1267 960
f 790 1270 966
f 797 1274 984
f 775 1255 930
f 776 1258 934
f 799 1280 1013
f 766 1248 1035
f 686 1049 1051
f 685 1045 1047
f 687 1046 1053
f 688 1052 1056
f 689 1055 1059
f 694 1064 1073
f 712 1128 1130
f 741 1215 1217
f 737 1203 1205
f 723 1154 1161
f 701 1094 1096
f 700 1090 1092
f 702 1091 1098
f 703 1097 1101
f 704 1100 1104
f 707 1112 1114
f 699 1079 1088
f 719 1136 1148
f 728 1173 1177
f 730 1181 1183
f 740 1210 1212
f 710 1120 1122
f 690 1061 1063
f 720 1151 1153
f 735 1196 1198
f 711 1124 1126
f 743 1218 1222
f 739 1200 1209
f 724 1158 1164
f 692 1067 1069
f 731 1184 1186
f 706 1105 1110
f 695 1076 1078
f 716 1139 1141
f 726 1170 1172
f 732 1188 1190
f 705 1106 1108
f 697 1082 1084
f 718 1142 1147
f 729 1166 1178
f 714 1121 1133
f 691 1060 1065
f 721 1150 1155
f 738 1195 1206
f 744 1211 1223
f 733 1180 1191
f 709 1113 1119
f 698 1085 1087
f 717 1143 1145
f 725 1165 1167
f 708 1109 1116
f 696 1075 1080
f 715 1135 1137
f 727 1169 1174
f 734 1185 1194
f 713 1127 1132
f 742 1214 1219
f 736 1199 1201
f 722 1157 1159
f 693 1070 1072
f 758 1233 1232
f 750 1229 1226
f 748 1230 1227
f 754 1236 1234
f 757 1239 1237
f 761 1242 1240
f 798 1276 1278
f 781 1261 1263
f 802 1281 1284
f 762 1244 1243
f 791 1266 1265
f 774 1250 1253
f 770 1252 1251
f 787 1269 1267
f 790 1272 1270
f 797 1277 1274
f 775 1257 1255
f 776 1259 1258
f 799 1279 1280
f 766 1246 1248
f 686 806 1049
f 685 805 1045
f 687 807 1046
f 688 808 1052
f 689 809 1055
f 694 814 1064
f 712 832 1128
f 741 861 1215
f 737 857 1203
f 723 843 1154
f 701 821 1094
f 700 820 1090
f 702 822 1091
f 703 823 1097
f 704 824 1100
f 707 827 1112
f 699 819 1079
f 719 839 1136
f 728 848 1173
f 730 850 1181
f 740 860 1210
f 710 830 1120
f 690 810 1061
f 720 840 1151
f 735 855 1196
f 711 831 1124
f 743 863 1218
f 739 859 1200
f 724 844 1158
f 692 812 1067
f 731 851 1184
f 706 826 1105
f 695 815 1076
f 716 836 1139
f 726 846 1170
f 732 852 1188
f 705 825 1106
f 697 817 1082
f 718 838 1142
f 729 849 1166
f 714 834 1121
f 691 811 1060
f 721 841 1150
f 738 858 1195
f 744 864 1211
f 733 853 1180
f 709 829 1113
f 698 818 1085
f 717 837 1143
f 725 845 1165
f 708 828 1109
f 696 816 1075
f 715 835 1135
f 727 847 1169
f 734 854 1185
f 713 833 1127
f 742 862 1214
f 736 856 1199
f 722 842 1157
f 693 813 1070
f 758 1000 1233
f 750 898 1229
f 748 903 1230
f 754 1029 1236
f 757 1041 1239
f 761 993 1242
f 798 990 1276
f 781 942 1261
f 802 1008 1281
f 762 909 1244
f 791 982 1266
f 774 929 1250
f 770 933 1252
f 787 1011 1269
f 790 1037 1272
f 797 996 1277
f 775 987 1257
f 776 939 1259
f 799 1005 1279
f 766 912 1246
f 689 889 1058
f 686 871 1050
f 685 865 1048
f 687 877 1054
f 688 883 1057
f 691 895 1066
f 714 997 1134
f 744 1040 1224
f 738 1028 1207
f 721 902 1156
f 704 967 1103
f 701 949 1095
f 700 920 1093
f 702 955 1099
f 703 961 1102
f 708 979 1117
f 696 925 1081
f 715 932 1138
f 727 1010 1175
f 734 1034 1193
f 743 998 1221
f 711 896 1125
f 692 901 1068
f 724 1027 1163
f 739 1039 1208
f 713 991 1131
f 742 986 1220
f 736 938 1202
f 722 1004 1160
f 693 907 1071
f 732 980 1189
f 705 926 1107
f 697 931 1083
f 718 1009 1146
f 729 1033 1179
f 733 992 1192
f 709 985 1118
f 698 937 1086
f 717 1003 1144
f 725 908 1168
f 710 872 1123
f 690 866 1062
f 720 878 1152
f 735 884 1197
f 740 890 1213
f 730 914 1182
f 707 973 1115
f 699 943 1089
f 719 1015 1149
f 728 1022 1176
f 706 950 1111
f 695 919 1077
f 716 956 1140
f 726 962 1171
f 731 968 1187
f 712 974 1129
f 741 944 1216
f 737 1016 1204
f 723 1021 1162
f 694 913 1074
f 751 876 1231
f 747 869 1225
f 753 881 1228
f 756 887 1235
f 759 894 1238
f 767 917 1241
f 794 976 1275
f 779 946 1262
f 800 1019 1282
f 765 1024 1245
f 785 954 1264
f 769 921 1249
f 777 958 1254
f 789 965 1268
f 792 972 1271
f 795 977 1273
f 782 947 1256
f 780 1018 1260
f 801 1025 1283
f 764 916 1247
f 749 874 1051
f 745 867 1047
f 746 879 1053
f 752 885 1056
f 755 892 1059
f 760 915 1073
f 796 978 1130
f 783 948 1217
f 804 1020 1205
f 763 1023 1161
f 784 953 1096
f 771 923 1092
f 772 957 1098
f 786 963 1101
f 788 970 1104
f 793 975 1114
f 773 945 1088
f 778 1017 1148
f 803 1026 1177
f 768 918 1183
f 758 893 1212
f 750 875 1122
f 748 870 1063
f 754 882 1153
f 757 888 1198
f 761 900 1126
f 798 1002 1222
f 781 1043 1209
f 802 1031 1164
f 762 905 1069
f 791 971 1186
f 774 952 1110
f 770 922 1078
f 787 960 1141
f 790 966 1172
f 797 984 1190
f 775 930 1108
f 776 934 1084
f 799 1013 1147
f 766 1035 1178
f 751 999 1133
f 747 897 1065
f 753 904 1155
f 756 1030 1206
f 759 1042 1223
f 767 994 1191
f 794 989 1119
f 779 940 1087
f 800 1006 1145
f 765 911 1167
f 785 981 1116
f 769 927 1080
f 777 935 1137
f 789 1012 1174
f 792 1038 1194
f 795 995 1132
f 782 988 1219
f 780 941 1201
f 801 1007 1159
f 764 910 1072
f 749 891 1232
f 745 873 1226
f 746 868 1227
f 752 880 1234
f 755 886 1237
f 760 899 1240
f 796 1001 1278
f 783 1044 1263
f 804 1032 1284
f 763 906 1243
f 784 969 1265
f 771 951 1253
f 772 924 1251
f 786 959 1267
f 788 964 1270
f 793 983 1274
f 773 928 1255
f 778 936 1258
f 803 1014 1280
f 768 1036 1248
f 689 1058 1049
f 686 1050 1045
f 685 1048 1046
f 687 1054 1052
f 688 1057 1055
f 691 1066 1064
f 714 1134 1128
f 744 1224 1215
f 738 1207 1203
f 721 1156 1154
f 704 1103 1094
f 701 1095 1090
f 700 1093 1091
f 702 1099 1097
f 703 1102 1100
f 708 1117 1112
f 696 1081 1079
f 715 1138 1136
f 727 1175 1173
f 734 1193 1181
f 743 1221 1210
f 711 1125 1120
f 692 1068 1061
f 724 1163 1151
f 739 1208 1196
f 713 1131 1124
f 742 1220 1218
f 736 1202 1200
f 722 1160 1158
f 693 1071 1067
f 732 1189 1184
f 705 1107 1105
f 697 1083 1076
f 718 1146 1139
f 729 1179 1170
f 733 1192 1188
f 709 1118 1106
f 698 1086 1082
f 717 1144 1142
f 725 1168 1166
f 710 1123 1121
f 690 1062 1060
f 720 1152 1150
f 735 1197 1195
f 740 1213 1211
f 730 1182 1180
f 707 1115 1113
f 699 1089 1085
f 719 1149 1143
f 728 1176 1165
f 706 1111 1109
f 695 1077 1075
f 716 1140 1135
f 726 1171 1169
f 731 1187 1185
f 712 1129 1127
f 741 1216 1214
f 737 1204 1199
f 723 1162 1157
f 694 1074 1070
f 751 1231 1233
f 747 1225 1229
f 753 1228 1230
f 756 1235 1236
f 759 1238 1239
f 767 1241 1242
f 794 1275 1276
f 779 1262 1261
f 800 1282 1281
f 765 1245 1244
f 785 1264 1266
f 769 1249 1250
f 777 1254 1252
f 789 1268 1269
f 792 1271 1272
f 795 1273 1277
f 782 1256 1257
f 780 1260 1259
f 801 1283 1279
f 764 1247 1246
f 1049 806 809
f 1045 805 806
f 1046 807 805
f 1052 808 807
f 1055 809 808
f 1064 814 811
f 1128 832 834
f 1215 861 864
f 1203 857 858
f 1154 843 841
f 1094 821 824
f 1090 820 821
f 1091 822 820
f 1097 823 822
f 1100 824 823
f 1112 827 828
f 1079 819 816
f 1136 839 835
f 1173 848 847
f 1181 850 854
f 1210 860 863
f 1120 830 831
f 1061 810 812
f 1151 840 844
f 1196 855 859
f 1124 831 833
f 1218 863 862
f 1200 859 856
f 1158 844 842
f 1067 812 813
f 1184 851 852
f 1105 826 825
f 1076 815 817
f 1139 836 838
f 1170 846 849
f 1188 852 853
f 1106 825 829
f 1082 817 818
f 1142 838 837
f 1166 849 845
f 1121 834 830
f 1060 811 810
f 1150 841 840
f 1195 858 855
f 1211 864 860
f 1180 853 850
f 1113 829 827
f 1085 818 819
f 1143 837 839
f 1165 845 848
f 1109 828 826
f 1075 816 815
f 1135 835 836
f 1169 847 846
f 1185 854 851
f 1127 833 832
f 1214 862 861
f 1199 856 857
f 1157 842 843
f 1070 813 814
f 1233 1000 999
f 1229 898 897
f 1230 903 904
f 1236 1029 1030
f 1239 1041 1042
f 1242 993 994
f 1276 990 989
f 1261 942 940
f 1281 1008 1006
f 1244 909 911
f 1266 982 981
f 1250 929 927
f 1252 933 935
f 1269 1011 1012
f 1272 1037 1038
f 1277 996 995
f 1257 987 988
f 1259 939 941
f 1279 1005 1007
f 1246 912 910
f 1058 889 891
f 1050 871 873
f 1048 865 868
f 1054 877 880
f 1057 883 886
f 1066 895 899
f 1134 997 1001
f 1224 1040 1044
f 1207 1028 1032
f 1156 902 906
f 1103 967 969
f 1095 949 951
f 1093 920 924
f 1099 955 959
f 1102 961 964
f 1117 979 983
f 1081 925 928
f 1138 932 936
f 1175 1010 1014
f 1193 1034 1036
f 1221 998 1000
f 1125 896 898
f 1068 901 903
f 1163 1027 1029
f 1208 1039 1041
f 1131 991 993
f 1220 986 990
f 1202 938 942
f 1160 1004 1008
f 1071 907 909
f 1189 980 982
f 1107 926 929
f 1083 931 933
f 1146 1009 1011
f 1179 1033 1037
f 1192 992 996
f 1118 985 987
f 1086 937 939
f 1144 1003 1005
f 1168 908 912
f 1123 872 876
f 1062 866 869
f 1152 878 881
f 1197 884 887
f 1213 890 894
f 1182 914 917
f 1115 973 976
f 1089 943 946
f 1149 1015 1019
f 1176 1022 1024
f 1111 950 954
f 1077 919 921
f 1140 956 958
f 1171 962 965
f 1187 968 972
f 1129 974 977
f 1216 944 947
f 1204 1016 1018
f 1162 1021 1025
f 1074 913 916
f 1231 876 874
f 1225 869 867
f 1228 881 879
f 1235 887 885
f 1238 894 892
f 1241 917 915
f 1275 976 978
f 1262 946 948
f 1282 1019 1020
f 1245 1024 1023
f 1264 954 953
f 1249 921 923
f 1254 958 957
f 1268 965 963
f 1271 972 970
f 1273 977 975
f 1256 947 945
f 1260 1018 1017
f 1283 1025 1026
f 1247 916 918
f 1051 874 871
f 1047 867 865
f 1053 879 877
f 1056 885 883
f 1059 892 889
f 1073 915 913
f 1130 978 974
f 1217 948 944
f 1205 1020 1016
f 1161 1023 1021
f 1096 953 949
f 1092 923 920
f 1098 957 955
f 1101 963 961
f 1104 970 967
f 1114 975 973
f 1088 945 943
f 1148 1017 1015
f 1177 1026 1022
f 1183 918 914
f 1212 893 890
f 1122 875 872
f 1063 870 866
f 1153 882 878
f 1198 888 884
f 1126 900 896
f 1222 1002 998
f 1209 1043 1039
f 1164 1031 1027
f 1069 905 901
f 1186 971 968
f 1110 952 950
f 1078 922 919
f 1141 960 956
f 1172 966 962
f 1190 984 980
f 1108 930 926
f 1084 934 931
f 1147 1013 1009
f 1178 1035 1033
f 1133 999 997
f 1065 897 895
f 1155 904 902
f 1206 1030 1028
f 1223 1042 1040
f 1191 994 992
f 1119 989 985
f 1087 940 937
f 1145 1006 1003
f 1167 911 908
f 1116 981 979
f 1080 927 925
f 1137 935 932
f 1174 1012 1010
f 1194 1038 1034
f 1132 995 991
f 1219 988 986
f 1201 941 938
f 1159 1007 1004
f 1072 910 907
f 1232 891 893
f 1226 873 875
f 1227 868 870
f 1234 880 882
f 1237 886 888
f 1240 899 900
f 1278 1001 1002
f 1263 1044 1043
f 1284 1032 1031
f 1243 906 905
f 1265 969 971
f 1253 951 952
f 1251 924 922
f 1267 959 960
f 1270 964 966
f 1274 983 984
f 1255 928 930
f 1258 936 934
f 1280 1014 1013
f 1248 1036 1035
f 1049 1058 1051
f 1045 1050 1047
f 1046 1048 1053
f 1052 1054 1056
f 1055 1057 1059
f 1064 1066 1073
f 1128 1134 1130
f 1215 1224 1217
f 1203 1207 1205
f 1154 1156 1161
f 1094 1103 1096
f 1090 1095 1092
f 1091 1093 1098
f 1097 1099 1101
f 1100 1102 1104
f 1112 1117 1114
f 1079 1081 1088
f 1136 1138 1148
f 1173 1175 1177
f 1181 1193 1183
f 1210 1221 1212
f 1120 1125 1122
f 1061 1068 1063
f 1151 1163 1153
f 1196 1208 1198
f 1124 1131 1126
f 1218 1220 1222
f 1200 1202 1209
f 1158 1160 1164
f 1067 1071 1069
f 1184 1189 1186
f 1105 1107 1110
f 1076 1083 1078
f 1139 1146 1141
f 1170 1179 1172
f 1188 1192 1190
f 1106 1118 1108
f 1082 1086 1084
f 1142 1144 1147
f 1166 1168 1178
f 1121 1123 1133
f 1060 1062 1065
f 1150 1152 1155
f 1195 1197 1206
f 1211 1213 1223
f 1180 1182 1191
f 1113 1115 1119
f 1085 1089 1087
f 1143 1149 1145
f 1165 1176 1167
f 1109 1111 1116
f 1075 1077 1080
f 1135 1140 1137
f 1169 1171 1174
f 1185 1187 1194
f 1127 1129 1132
f 1214 1216 1219
f 1199 1204 1201
f 1157 1162 1159
f 1070 1074 1072
f 1233 1231 1232
f 1229 1225 1226
f 1230 1228 1227
f 1236 1235 1234
f 1239 1238 1237
f 1242 1241 1240
f 1276 1275 1278
f 1261 1262 1263
f 1281 1282 1284
f 1244 1245 1243
f 1266 1264 1265
f 1250 1249 1253
f 1252 1254 1251
f 1269 1268 1267
f 1272 1271 1270
f 1277 1273 1274
f 1257 1256 1255
f 1259 1260 1258
f 1279 1283 1280
f 1246 1247 1248